<svg width="169" height="140" fill="none" xmlns="http://www.w3.org/2000/svg"><path d="M116.337 39.873L92.535 67.07l-8.9-7.822 8.368-9.475-19.665-17.29-11.743 13.306 28.457 25.234-11.89 13.613-44.846-39.109L71.499.773l44.838 39.1zM84.482 50.141L73.016 39.858l-4.87 5.415 11.436 10.32 4.9-5.452z" fill="#252726"/><path d="M71.383 27.076L55.617 44.934l23.471 20.65-5.763 6.538L43.31 45.71l27.294-30.918 29.913 26.442-5.756 6.499-23.38-20.658z" fill="#DD2B1C"/><path d="M4.367 126.374H1.085v-24.827h16.998v24.827h-3.282v-21.62H4.367v21.62zm30.893-24.827v2.961h-9.232v-2.961h9.231z" fill="#151616"/><path d="M35.26 112.445v2.892l-12.646.016v-2.892l12.645-.016z" fill="#DD2B1C"/><path d="M35.26 126.374h-9.232v-3.138h9.231v3.138zm7.427-13.106h2.836c3.73 0 5.594-1.43 5.594-4.307 0-2.968-1.818-4.453-5.455-4.453h-2.975v8.76zm0 13.106h-3.252v-24.827h6.704c2.443 0 4.4.577 5.88 1.723 1.587 1.261 2.38 3.092 2.38 5.484 0 2.438-.84 4.322-2.519 5.653-1.549 1.222-3.575 1.83-6.087 1.83h-3.106v10.137zm17.623 0h-3.044v-24.827h3.321v19.266l12.514-19.266h3.067v24.827h-3.313v-19.312L60.31 126.374zm23.463 0H80.63v-24.827h5.147l7.428 19.881 7.428-19.881h5.009v24.827h-3.044l.208-22.658-8.46 22.658h-2.35l-8.47-22.65.248 22.65z" fill="#151616"/><path d="M122.887 112.445v2.892h-13.076v-2.892h13.076z" fill="#DD2B1C"/><path d="M122.887 101.547v2.961h-9.177v-2.961h9.177zm0 24.827h-9.177v-3.138h9.177v3.138zm10.672 0h-3.282v-21.796h-5.009v-3.031h13.338v3.031h-5.047v21.796zm10.888-13.106h2.828c3.737 0 5.602-1.43 5.602-4.307 0-2.968-1.818-4.453-5.463-4.453h-2.967v8.76zm0 13.106h-3.251v-24.827h6.703c2.443 0 4.4.577 5.872 1.723 1.595 1.261 2.389 3.092 2.389 5.484 0 2.438-.84 4.322-2.528 5.653-1.541 1.222-3.567 1.83-6.079 1.83h-3.106v10.137zM1.994 135.511H1.14v-5.023h2.85v.808H1.995v4.215zm4.485-3.954c-.3.247-.509.57-.624.977H9.19c-.27-.9-.817-1.346-1.641-1.346-.416 0-.778.123-1.071.369zm3.467 2.408c-.477 1.123-1.287 1.684-2.412 1.684a2.467 2.467 0 01-1.841-.784 2.588 2.588 0 01-.763-1.869c0-.723.254-1.346.755-1.869.509-.523 1.117-.785 1.834-.785.578 0 1.079.146 1.495.446.416.3.724.716.91 1.262.122.346.184.769.184 1.261H5.84c.077.438.27.8.578 1.084.316.285.686.431 1.117.431.632 0 1.118-.284 1.45-.861h.962zm2.628.307c.324.354.74.531 1.233.531.493 0 .901-.177 1.233-.531a1.8 1.8 0 00.493-1.269c0-.515-.162-.946-.493-1.299a1.638 1.638 0 00-1.249-.531c-.493 0-.901.184-1.225.546a1.838 1.838 0 00-.485 1.284c0 .493.162.923.493 1.269zm3.09.562c-.516.546-1.133.815-1.857.815a2.504 2.504 0 01-1.85-.777c-.508-.523-.77-1.146-.77-1.869 0-.707.254-1.338.755-1.876.509-.539 1.11-.815 1.819-.815.709 0 1.333.261 1.864.784.532.515.802 1.131.802 1.838 0 .723-.255 1.361-.763 1.9zm4.546.677l-1.61-3.669v3.669h-.817v-5.023h1.125l1.672 4.054 1.672-4.054h1.125v5.023h-.824v-3.669l-1.603 3.669h-.74zm6.072-3.954c-.293.247-.5.57-.616.977h3.328c-.261-.9-.809-1.346-1.633-1.346-.416 0-.778.123-1.079.369zm3.468 2.408c-.478 1.123-1.28 1.684-2.412 1.684a2.45 2.45 0 01-1.834-.784 2.588 2.588 0 01-.763-1.869c0-.723.254-1.346.755-1.869a2.45 2.45 0 011.834-.785c.578 0 1.071.146 1.487.446.424.3.725.716.917 1.262.123.346.185.769.185 1.261h-4.276c.077.438.277.8.585 1.084a1.58 1.58 0 001.11.431c.64 0 1.117-.284 1.456-.861h.956zm2.435 1.546v-4.215h-1.357v-.808h3.583v.808h-1.356v4.215h-.87zm4.738-1.262c.34.369.748.554 1.233.554.494 0 .91-.177 1.256-.523.347-.354.517-.777.517-1.261 0-.516-.17-.946-.517-1.308a1.689 1.689 0 00-1.263-.538c-.47 0-.871.185-1.218.554-.346.361-.516.776-.516 1.238 0 .492.17.923.508 1.284zm-.47.592v2.854h-.863v-7.214h.863v.677c.517-.523 1.102-.785 1.734-.785.763 0 1.395.246 1.888.746.501.5.748 1.131.748 1.9a2.59 2.59 0 01-.717 1.838c-.478.515-1.094.769-1.85.769-.67 0-1.27-.262-1.803-.785zm5.764.67v-5.023h.856v3.723l2.735-3.723h.81v5.023h-.864v-3.73l-2.728 3.73h-.809zm8.754-2.692l.062-.116v.116h-.062zm-2.759 2.692c.825-1.223 1.28-1.9 1.372-2.038-.994-.124-1.495-.608-1.495-1.469 0-.516.185-.9.547-1.162.324-.231.755-.354 1.287-.354h1.965v5.023h-.855v-4.246h-1.04c-.687 0-1.033.246-1.033.739 0 .353.146.592.431.707.177.069.478.108.902.108h.67l-1.772 2.692h-.979zm8.9 0h-.855v-5.023h.855v2.108h2.443v-2.108h.848v5.023h-.848v-2.154h-2.443v2.154zm6.11-1.239c.347.362.771.546 1.272.546.455 0 .863-.184 1.21-.553.347-.369.516-.785.516-1.239 0-.484-.17-.915-.508-1.284a1.621 1.621 0 00-1.233-.554c-.486 0-.902.177-1.256.531a1.745 1.745 0 00-.524 1.254c0 .507.177.938.524 1.299zm2.998 1.239v-.708c-.531.546-1.125.815-1.772.815-.763 0-1.387-.254-1.888-.753-.5-.5-.755-1.131-.755-1.892 0-.723.254-1.339.747-1.846a2.474 2.474 0 011.834-.762c.686 0 1.287.262 1.796.785v-.662h.863v5.023h-.825zm3.314 0h-.848v-5.023h4.045v5.023h-.855v-4.246h-2.342v4.246zm5.933-1.239c.331.354.74.531 1.24.531.486 0 .894-.177 1.226-.531a1.8 1.8 0 00.493-1.269c0-.515-.162-.946-.493-1.299a1.638 1.638 0 00-1.249-.531 1.56 1.56 0 00-1.217.546 1.838 1.838 0 00-.486 1.284c0 .493.162.923.486 1.269zm3.09.562c-.509.546-1.125.815-1.85.815a2.508 2.508 0 01-1.857-.777 2.589 2.589 0 01-.762-1.869c0-.707.246-1.338.755-1.876.5-.539 1.11-.815 1.81-.815.717 0 1.334.261 1.873.784.532.515.794 1.131.794 1.838 0 .723-.255 1.361-.763 1.9zm2.489.677h-.917l1.857-5.023h.732l1.857 5.023h-.917l-1.318-3.777-1.294 3.777zm5.47-3.015h1.118c1.218 0 1.826.5 1.826 1.499 0 .508-.185.893-.547 1.162-.331.238-.755.354-1.287.354H85.67v-5.023h.848v2.008zm0 2.238h1.04c.687 0 1.034-.246 1.034-.739 0-.484-.347-.722-1.033-.722h-1.04v1.461zm5.171.777h-.855v-5.023h.855v2.108h2.443v-2.108h.855v5.023h-.855v-2.154h-2.443v2.154zm5.818-3.015c.724 0 1.148.007 1.271.023.486.038.848.154 1.102.338.308.246.47.623.47 1.138 0 .516-.185.908-.54 1.17-.323.23-.747.346-1.286.346H96.65v-5.023h.855v2.008zm0 2.238h.955c.686 0 1.025-.246 1.025-.739 0-.484-.339-.722-1.025-.722h-.955v1.461zm3.383.777v-5.023h.847v5.023h-.847zm5.301 0l-1.202-1.939-1.233 1.939h-.948l1.703-2.615-1.502-2.408h.947l1.072 1.762 1.109-1.762h.986l-1.595 2.377 1.619 2.646h-.956zm5.648 0h-.847v-5.023h4.045v5.023h-.855v-4.246h-2.343v4.246zm5.934-1.239c.331.354.739.531 1.232.531.494 0 .902-.177 1.233-.531.332-.353.494-.784.494-1.269 0-.515-.162-.946-.494-1.299a1.636 1.636 0 00-1.248-.531c-.493 0-.894.184-1.217.546a1.838 1.838 0 00-.486 1.284c0 .493.162.923.486 1.269zm3.089.562c-.508.546-1.125.815-1.857.815-.724 0-1.34-.261-1.849-.777a2.59 2.59 0 01-.763-1.869c0-.707.247-1.338.755-1.876.501-.539 1.11-.815 1.811-.815.717 0 1.333.261 1.873.784.531.515.793 1.131.793 1.838 0 .723-.254 1.361-.763 1.9zm2.127.677v-5.023h.848v2.362l.046-.062v.069l2.127-2.369h.971l-2.135 2.377 2.189 2.646h-1.102l-2.05-2.585v.1l-.046-.076v2.561h-.848zm6.365-1.262c.339.369.755.554 1.233.554.493 0 .909-.177 1.256-.523.347-.354.524-.777.524-1.261 0-.516-.177-.946-.516-1.308a1.72 1.72 0 00-1.272-.538c-.462 0-.87.185-1.217.554-.347.361-.517.776-.517 1.238 0 .492.17.923.509 1.284zm-.47.592v2.854h-.863v-7.214h.863v.677c.524-.523 1.102-.785 1.734-.785.763 0 1.394.246 1.895.746.494.5.74 1.131.74 1.9 0 .715-.231 1.33-.717 1.838-.477.515-1.094.769-1.849.769-.67 0-1.271-.262-1.803-.785zm6.65-2.345c.724 0 1.148.007 1.271.023.486.038.856.154 1.102.338.308.246.47.623.47 1.138 0 .516-.177.908-.539 1.17-.324.23-.748.346-1.287.346h-1.872v-5.023h.855v2.008zm0 2.238h.963c.678 0 1.017-.246 1.017-.739 0-.484-.339-.722-1.017-.722h-.963v1.461zm3.383.777v-5.023h.847v5.023h-.847zm3.413 0v-4.215h-1.356v-.808h3.583v.808h-1.356v4.215h-.871zm3.398 0v-5.023h.856v3.723l2.735-3.723h.817v5.023h-.863v-3.73l-2.735 3.73h-.81zm6.011 0v-5.007h.855v3.707l2.712-3.707h.817v5.007h-.863v-3.723l-2.704 3.723h-.817zm1.541-6.645c0 .215.062.4.169.561a.574.574 0 00.486.231c.216 0 .385-.077.493-.246.108-.139.154-.323.154-.546h.624c0 .384-.115.707-.346.969a1.188 1.188 0 01-.933.423c-.354 0-.655-.146-.901-.423a1.442 1.442 0 01-.363-.969h.617zm9.185-30.087c.555 0 .832-.193.832-.562 0-.192-.077-.323-.223-.407a1.199 1.199 0 00-.547-.116h-.625v1.085h.563zm-1.248-1.662h1.34c.262 0 .494.031.694.1.208.07.377.185.524.362.139.169.208.384.208.646a.984.984 0 01-.239.677c-.154.177-.37.3-.647.361.069.108.416.677 1.032 1.707h-.832l-.894-1.63h-.501v1.63h-.685v-3.853z" fill="#151616"/><path d="M159.866 101.732a3.768 3.768 0 01-1.117-2.692c0-1.046.424-2 1.117-2.684a3.78 3.78 0 012.697-1.115c1.048 0 2.004.423 2.697 1.115a3.786 3.786 0 011.11 2.684 3.791 3.791 0 01-1.11 2.692 3.807 3.807 0 01-2.697 1.115 3.78 3.78 0 01-2.697-1.115zm2.697.492c.879 0 1.672-.354 2.25-.93.578-.577.933-1.37.933-2.254a3.16 3.16 0 00-.933-2.246 3.17 3.17 0 00-2.25-.93 3.19 3.19 0 00-2.258.93 3.162 3.162 0 00-.932 2.246c0 .884.355 1.677.932 2.254.578.576 1.38.93 2.258.93z" fill="#151616"/></svg>