<svg width="139" height="115" fill="none" xmlns="http://www.w3.org/2000/svg"><path d="M97.017 33.04L77.178 55.63l-7.418-6.497 6.975-7.87-16.39-14.361-9.788 11.051 23.718 20.96-9.91 11.308-37.378-32.485L59.645.563 97.017 33.04zm-26.55 8.53l-9.557-8.542-4.059 4.498 9.531 8.573 4.085-4.53z" fill="#252726"/><path d="M59.549 22.41l-13.14 14.833L65.97 54.396l-4.804 5.43-25.015-21.938L58.9 12.207 83.832 34.17l-4.797 5.398L59.548 22.41z" fill="#DD2B1C"/><path d="M3.694 104.891H.958V84.269h14.168v20.622H12.39V86.933H3.694v17.958zm25.747-20.625v2.46h-7.694v-2.46h7.694z" fill="#292929"/><path d="M29.441 93.322v2.402l-10.539.013v-2.402l10.54-.013z" fill="#DD2B1C"/><path d="M29.441 104.892h-7.694v-2.607h7.694v2.607zm6.191-10.891h2.364c3.108 0 4.662-1.188 4.662-3.577 0-2.466-1.516-3.699-4.547-3.699h-2.479v7.276zm0 10.886h-2.71V84.266h5.587c2.036 0 3.667.479 4.9 1.43 1.324 1.048 1.985 2.569 1.985 4.555 0 2.026-.7 3.59-2.1 4.696-1.29 1.016-2.98 1.52-5.074 1.52h-2.588v8.42zm14.688 0h-2.537V84.266h2.768v16.002l10.43-16.002h2.556v20.621h-2.761v-16.04l-10.456 16.04zm19.557 0h-2.62V84.266h4.29l6.191 16.514 6.191-16.514h4.175v20.621h-2.537l.173-18.82-7.051 18.82h-1.96l-7.057-18.814.205 18.814z" fill="#292929"/><path d="M102.477 93.322v2.402H91.578v-2.402h10.899z" fill="#DD2B1C"/><path d="M102.476 84.266v2.46h-7.649v-2.46h7.649zm0 20.626h-7.649v-2.607h7.649v2.607zm8.895-.005h-2.736V86.783h-4.174v-2.517h11.117v2.517h-4.207v18.104zm9.075-10.886h2.357c3.114 0 4.669-1.188 4.669-3.577 0-2.466-1.516-3.699-4.554-3.699h-2.472v7.276zm0 10.886h-2.711V84.266h5.588c2.036 0 3.667.479 4.894 1.43 1.329 1.048 1.991 2.569 1.991 4.555 0 2.026-.701 3.59-2.107 4.696-1.284 1.016-2.974 1.52-5.067 1.52h-2.588v8.42zm-118.73 7.591h-.713v-4.171h2.376v.671H1.716v3.5zm3.738-3.283c-.25.204-.424.473-.52.811h2.78c-.224-.747-.68-1.118-1.368-1.118-.346 0-.648.102-.892.307zm2.89 1.999c-.398.933-1.073 1.4-2.01 1.4a2.062 2.062 0 01-1.535-.652 2.147 2.147 0 01-.636-1.552c0-.601.212-1.118.63-1.553a2.057 2.057 0 011.528-.651c.481 0 .899.121 1.246.37.346.249.603.594.757 1.048.103.287.155.639.155 1.047H4.92c.064.365.224.665.481.901.264.237.572.358.931.358.527 0 .932-.236 1.208-.716h.803zm2.19.256c.27.294.616.441 1.027.441a1.35 1.35 0 001.028-.441c.276-.294.41-.652.41-1.054 0-.428-.134-.786-.41-1.08a1.367 1.367 0 00-1.04-.441c-.412 0-.752.154-1.022.454-.27.294-.404.652-.404 1.067 0 .409.135.767.41 1.054zm2.575.466c-.43.454-.944.678-1.548.678a2.093 2.093 0 01-1.541-.646 2.152 2.152 0 01-.642-1.552c0-.588.212-1.112.63-1.559.423-.447.924-.677 1.515-.677.59 0 1.11.217 1.554.652.443.428.668.939.668 1.526 0 .601-.212 1.131-.636 1.578zm3.79.562l-1.343-3.047v3.047h-.68v-4.171h.937l1.393 3.367 1.394-3.367h.938v4.171h-.687v-3.047l-1.336 3.047h-.617zm5.06-3.283a1.6 1.6 0 00-.514.811h2.775c-.219-.747-.675-1.118-1.362-1.118-.347 0-.648.102-.899.307zm2.89 1.999c-.398.933-1.066 1.4-2.01 1.4a2.048 2.048 0 01-1.529-.652 2.147 2.147 0 01-.635-1.552c0-.601.212-1.118.629-1.553a2.047 2.047 0 011.529-.651c.481 0 .892.121 1.24.37.352.249.603.594.763 1.048.103.287.155.639.155 1.047h-3.565c.064.365.231.665.488.901.257.237.565.358.925.358.533 0 .931-.236 1.214-.716h.796zm2.03 1.284v-3.5h-1.13v-.671h2.986v.671h-1.13v3.5h-.726zm3.95-1.047c.282.306.622.46 1.027.46.411 0 .758-.147 1.047-.435.289-.293.43-.645.43-1.047a1.5 1.5 0 00-.43-1.086 1.411 1.411 0 00-1.053-.448c-.392 0-.726.154-1.015.46-.29.301-.43.646-.43 1.029 0 .409.14.767.423 1.067zm-.392.492v2.37h-.72v-5.992h.72v.562c.43-.435.918-.652 1.445-.652.635 0 1.162.205 1.573.62.418.415.623.939.623 1.578a2.15 2.15 0 01-.597 1.527c-.398.428-.912.638-1.542.638-.558 0-1.06-.217-1.502-.651zm4.803.555v-4.171h.713v3.092l2.28-3.092h.675v4.171h-.72v-3.098l-2.273 3.098h-.675zm7.296-2.235l.052-.096v.096h-.052zm-2.299 2.235a666.65 666.65 0 001.143-1.692c-.828-.103-1.246-.505-1.246-1.221 0-.428.154-.747.456-.964.27-.192.63-.294 1.073-.294H43.3v4.171h-.713v-3.526h-.867c-.572 0-.86.205-.86.613 0 .294.121.492.359.588.148.058.398.09.751.09h.559l-1.477 2.235h-.816zm7.418 0h-.713v-4.171h.713v1.75h2.036v-1.75h.706v4.171h-.706v-1.788h-2.036v1.788zm5.093-1.028c.289.3.642.454 1.06.454.379 0 .719-.154 1.008-.46.289-.307.43-.652.43-1.029 0-.402-.141-.76-.424-1.067a1.355 1.355 0 00-1.027-.46 1.43 1.43 0 00-1.047.441 1.446 1.446 0 00-.437 1.041c0 .422.148.78.437 1.08zm2.498 1.028v-.587c-.443.453-.938.677-1.477.677-.636 0-1.156-.211-1.573-.626-.418-.415-.63-.939-.63-1.572 0-.6.212-1.111.623-1.533a2.068 2.068 0 011.529-.632c.571 0 1.072.217 1.496.651v-.549h.72v4.171h-.688zm2.762 0H57.3v-4.171h3.372v4.171h-.713v-3.526h-1.952v3.526zm4.945-1.028c.276.294.617.441 1.034.441.405 0 .745-.147 1.021-.441.276-.294.411-.652.411-1.054 0-.428-.135-.786-.41-1.08a1.367 1.367 0 00-1.041-.441c-.411 0-.745.154-1.015.454-.27.294-.405.652-.405 1.067 0 .409.135.767.405 1.054zm2.575.466a2.028 2.028 0 01-1.541.678c-.61 0-1.124-.218-1.548-.646a2.145 2.145 0 01-.636-1.552c0-.588.206-1.112.63-1.559.417-.447.925-.677 1.51-.677.596 0 1.11.217 1.56.652.443.428.661.939.661 1.526 0 .601-.212 1.131-.636 1.578zm2.075.562h-.764l1.547-4.171h.61l1.548 4.171h-.764l-1.098-3.136-1.08 3.136zm4.56-2.504h.93c1.016 0 1.523.416 1.523 1.246 0 .422-.154.741-.456.965-.276.198-.63.293-1.072.293h-1.632v-4.171h.707v1.667zm0 1.859h.867c.571 0 .86-.204.86-.613 0-.402-.289-.601-.86-.601h-.867v1.214zm4.31.645h-.714v-4.171h.713v1.75h2.036v-1.75h.713v4.171h-.713v-1.788h-2.036v1.788zm4.848-2.504c.604 0 .957.007 1.06.019.404.032.706.128.918.282.257.204.392.517.392.945 0 .428-.154.754-.45.971-.27.192-.623.287-1.072.287h-1.56v-4.171h.712v1.667zm0 1.859h.796c.572 0 .855-.204.855-.613 0-.402-.283-.601-.855-.601h-.796v1.214zm2.82.645v-4.171h.706v4.171h-.707zm4.418 0l-1.002-1.609-1.028 1.609h-.79l1.42-2.172-1.252-1.999h.79l.892 1.463.925-1.463h.822l-1.33 1.974 1.35 2.197h-.797zm4.708 0h-.707v-4.171h3.372v4.171h-.713v-3.526h-1.952v3.526zm4.945-1.028a1.35 1.35 0 001.027.441 1.35 1.35 0 001.028-.441c.276-.294.411-.652.411-1.054 0-.428-.135-.786-.411-1.08a1.367 1.367 0 00-1.04-.441c-.412 0-.746.154-1.015.454-.27.294-.405.652-.405 1.067 0 .409.135.767.405 1.054zm2.575.466a2.032 2.032 0 01-1.548.678 2.093 2.093 0 01-1.541-.646 2.145 2.145 0 01-.636-1.552c0-.588.206-1.112.63-1.559.417-.447.924-.677 1.509-.677.597 0 1.111.217 1.56.652.444.428.662.939.662 1.526 0 .601-.212 1.131-.636 1.578zm1.773.562v-4.171h.706v1.961l.039-.051v.058l1.772-1.968h.81l-1.779 1.974 1.823 2.197h-.918l-1.708-2.146v.083l-.039-.064v2.127h-.706zm5.305-1.047c.282.306.629.46 1.027.46.411 0 .758-.147 1.047-.435.289-.293.437-.645.437-1.047 0-.428-.148-.786-.431-1.086a1.435 1.435 0 00-1.059-.448c-.386 0-.726.154-1.015.46-.289.301-.43.646-.43 1.029 0 .409.141.767.424 1.067zm-.392.492v2.37h-.719v-5.992h.719v.562c.437-.435.918-.652 1.445-.652.636 0 1.162.205 1.58.62.411.415.616.939.616 1.578 0 .594-.192 1.105-.597 1.527-.398.428-.912.638-1.541.638-.559 0-1.06-.217-1.503-.651zm5.542-1.949c.604 0 .957.007 1.06.019.405.032.713.128.918.282.257.204.392.517.392.945 0 .428-.148.754-.449.971-.27.192-.623.287-1.073.287h-1.561v-4.171h.713v1.667zm0 1.859h.803c.565 0 .848-.204.848-.613 0-.402-.283-.601-.848-.601h-.803v1.214zm2.82.645v-4.171h.706v4.171h-.706zm2.845 0v-3.5h-1.13v-.671h2.986v.671h-1.13v3.5h-.726zm2.832 0v-4.171h.713v3.092l2.28-3.092h.681v4.171h-.72v-3.098l-2.28 3.098h-.674zm5.01 0v-4.158h.712v3.079l2.261-3.079h.681v4.158h-.719v-3.091l-2.255 3.091h-.68zm1.284-5.519c0 .179.051.332.141.466a.48.48 0 00.405.192c.18 0 .321-.064.411-.204.09-.115.128-.269.128-.454h.521c0 .319-.097.588-.289.805a.991.991 0 01-.777.351.977.977 0 01-.752-.351 1.195 1.195 0 01-.302-.805h.514zm7.656-24.991c.463 0 .694-.16.694-.467 0-.16-.064-.268-.186-.338a1.006 1.006 0 00-.456-.096h-.521v.9h.469zm-1.04-1.38h1.117c.219 0 .411.025.578.083a.928.928 0 01.437.3c.116.14.173.32.173.537a.814.814 0 01-.199.562.97.97 0 01-.539.3c.058.09.347.562.861 1.418h-.694l-.745-1.354h-.418v1.355h-.571v-3.201z" fill="#292929"/><path d="M133.297 84.421a3.123 3.123 0 01-.931-2.236c0-.869.353-1.66.931-2.23a3.157 3.157 0 012.248-.926c.874 0 1.67.352 2.248.927.572.568.925 1.36.925 2.23 0 .874-.353 1.666-.925 2.235a3.178 3.178 0 01-2.248.926c-.88 0-1.676-.351-2.248-.926zm2.248.409a2.65 2.65 0 002.653-2.645 2.65 2.65 0 00-2.653-2.638c-.732 0-1.4.294-1.881.773a2.62 2.62 0 00-.778 1.865c0 .735.296 1.393.778 1.872a2.66 2.66 0 001.881.773z" fill="#292929"/></svg>