<svg width="26" height="25" xmlns="http://www.w3.org/2000/svg"><path d="M8.33 17.25h14.024v.5H7.784c-.434 0-.844-.167-1.14-.452a1.455 1.455 0 01-.272-1.756l1.76-3.055.267-.463-.236-.478-4.67-9.488-.276-.558H1V1h2.618l.946 1.938.274.562h19.814c.09 0 .17.035.223.086.052.05.074.11.074.164a.526.526 0 01-.05.174l-4.616 8.038a1.626 1.626 0 01-1.405.788H8.632l-.288.503-1.155 2.016a1.307 1.307 0 00.218 1.61c.25.241.583.371.923.371zm10.835 5.25c0-.8.671-1.5 1.595-1.5.913 0 1.594.703 1.594 1.5 0 .386-.158.763-.453 1.048a1.646 1.646 0 01-1.142.452c-.434 0-.844-.167-1.14-.452a1.455 1.455 0 01-.454-1.048zm-12.975 0c0-.8.671-1.5 1.595-1.5.914 0 1.595.703 1.595 1.5 0 .386-.159.763-.454 1.048A1.646 1.646 0 017.785 24c-.435 0-.845-.167-1.141-.452A1.455 1.455 0 016.19 22.5z"/></svg>