<svg width="40" height="40" fill="none" xmlns="http://www.w3.org/2000/svg"><path stroke="#252726" stroke-width="2" d="M1 1h38v38H1z"/><path d="M11 7a2 2 0 00-2 2v11h2a3 3 0 006 0h6a3 3 0 006 0h2v-5l-3-4h-3V7H11zm7 2l4 4-4 4v-3h-6v-2h6V9zm7 3.5h2.5l1.97 2.5H25v-2.5zm-11 6a1.5 1.5 0 110 3 1.5 1.5 0 010-3zm12 0a1.5 1.5 0 110 3 1.5 1.5 0 010-3zM13.296 29.987h-2.861V33H9.199v-7.11h4.517v.997h-3.281V29h2.86v.986zm4.014.274h-1.377V33h-1.236v-7.11h2.5c.82 0 1.454.184 1.9.552.446.368.669.9.669 1.597 0 .475-.116.874-.347 1.196a2.18 2.18 0 01-.957.738l1.597 2.964V33h-1.324l-1.425-2.74zm-1.377-.991h1.27c.416 0 .741-.105.976-.313.234-.212.351-.5.351-.864 0-.381-.109-.676-.327-.884-.215-.208-.537-.316-.967-.322h-1.303v2.383zm9.16.556h-2.92v2.188h3.413V33h-4.648v-7.11h4.614v.997h-3.38v1.963h2.92v.976zm5.654 0h-2.92v2.188h3.413V33h-4.648v-7.11h4.614v.997h-3.379v1.963h2.92v.976z" fill="#252726"/></svg>