<svg width="40" height="40" fill="none" xmlns="http://www.w3.org/2000/svg"><path stroke="#252726" stroke-width="2" d="M1 1h38v38H1z"/><path d="M31.031 18.603L20.546 9.156a.606.606 0 00-.81 0L9.229 18.602a.606.606 0 00.404 1.056h1.79l8.308-7.396a.606.606 0 01.819 0l8.307 7.396h1.769a.606.606 0 00.405-1.056z" fill="#252726"/><path d="M12.174 20.614v9.78c0 .335.27.606.605.606h14.723a.606.606 0 00.605-.606v-9.78l-7.966-7.083-7.967 7.083zm4.875 2.975c.172.294.406.697.406 1.422 0 .724-.234 1.127-.405 1.422-.13.221-.2.343-.2.66a.757.757 0 11-1.515 0c0-.725.235-1.128.406-1.422.129-.222.2-.344.2-.66 0-.316-.071-.439-.2-.66-.171-.295-.406-.697-.406-1.422s.235-1.127.406-1.422c.129-.221.2-.344.2-.66a.757.757 0 111.514 0c0 .725-.234 1.127-.405 1.422-.13.222-.2.344-.2.66 0 .316.07.438.2.66zm6.186.761c-.17-.294-.405-.697-.405-1.421 0-.725.234-1.128.405-1.422.13-.222.2-.344.2-.66a.757.757 0 111.515 0c0 .725-.235 1.127-.406 1.422-.13.222-.2.344-.2.66 0 .316.07.438.2.66.171.294.405.697.405 1.422 0 .724-.234 1.127-.405 1.421-.13.222-.2.344-.2.66a.757.757 0 01-1.514 0c0-.724.234-1.127.405-1.421.13-.222.2-.344.2-.66 0-.317-.07-.439-.2-.66zm-2.033-3.503c0 .725-.234 1.127-.405 1.422-.13.222-.2.344-.2.66 0 .316.07.438.2.66.17.294.405.697.405 1.422 0 .724-.234 1.127-.405 1.422-.13.221-.2.343-.2.66a.757.757 0 01-1.515 0c0-.725.235-1.128.406-1.422.13-.222.2-.344.2-.66 0-.316-.07-.439-.2-.66-.171-.295-.405-.697-.405-1.422s.234-1.127.405-1.422c.13-.221.2-.344.2-.66a.757.757 0 111.514 0z" fill="#252726"/></svg>