<svg width="50" height="50" fill="none" xmlns="http://www.w3.org/2000/svg"><path fill="#fff" stroke="#252726" d="M.5.5h49v49H.5z"/><path fill-rule="evenodd" clip-rule="evenodd" d="M16.985 35.416v2.898h-.631v-.352c-.2.261-.503.425-.916.425-.813 0-1.45-.636-1.45-1.522 0-.885.637-1.521 1.45-1.521.412 0 .716.163.916.424v-.352h.63zm-1.468.522c-.546 0-.88.418-.88.927 0 .51.334.928.88.928.521 0 .873-.4.873-.928 0-.527-.352-.928-.873-.928zm22.777.927c0-.51.334-.928.88-.928.522 0 .873.4.873.928 0 .527-.351.928-.874.928-.545 0-.88-.419-.88-.928zm2.348-2.612v4.061h-.631v-.352c-.2.261-.504.425-.916.425-.813 0-1.45-.636-1.45-1.522 0-.885.637-1.521 1.45-1.521.413 0 .716.163.916.424v-1.515h.631zm-15.83 1.654c.406 0 .667.255.734.703h-1.505c.067-.418.322-.703.77-.703zm-1.432.958c0-.903.594-1.521 1.444-1.521.813 0 1.371.618 1.377 1.521 0 .085-.006.164-.012.242h-2.154c.091.522.462.71.868.71.29 0 .6-.11.844-.303l.309.467c-.353.297-.753.406-1.19.406-.867 0-1.486-.6-1.486-1.522zm9.059 0c0-.51.334-.928.88-.928.521 0 .873.4.873.928 0 .527-.352.928-.873.928-.546 0-.88-.419-.88-.928zm2.347-1.449v2.898h-.63v-.352c-.2.261-.504.425-.916.425-.813 0-1.45-.636-1.45-1.522 0-.885.637-1.521 1.45-1.521.412 0 .715.163.916.424v-.352h.63zm-5.909 1.45c0 .878.613 1.52 1.547 1.52.437 0 .728-.096 1.044-.345l-.303-.51c-.237.17-.486.262-.76.262-.503-.006-.873-.37-.873-.928s.37-.921.874-.928c.273 0 .522.091.759.261l.303-.509c-.316-.248-.607-.345-1.044-.345-.934 0-1.547.642-1.547 1.521zm7.366-1.098c.164-.254.4-.424.764-.424.128 0 .31.024.45.079l-.195.594a1.023 1.023 0 00-.394-.073c-.413 0-.619.266-.619.746v1.624h-.631v-2.898h.625v.352zm-16.14-.121c-.303-.2-.721-.303-1.182-.303-.735 0-1.208.351-1.208.927 0 .473.352.764 1 .855l.299.042c.346.049.509.14.509.304 0 .224-.23.351-.661.351-.437 0-.752-.14-.965-.303l-.297.49c.346.255.783.377 1.255.377.838 0 1.323-.394 1.323-.946 0-.51-.382-.776-1.013-.867l-.297-.043c-.273-.036-.492-.09-.492-.284 0-.212.207-.34.552-.34.37 0 .729.14.905.25l.272-.51zm7.373.121a.855.855 0 01.764-.424c.128 0 .31.024.449.079l-.194.594a1.023 1.023 0 00-.395-.073c-.412 0-.619.266-.619.746v1.624h-.63v-2.898h.625v.352zm-4.618-.352h-1.03v-.879h-.638v.88h-.59v.575h.589v1.322c0 .672.26 1.073 1.006 1.073.274 0 .59-.085.79-.224l-.183-.54a1.169 1.169 0 01-.558.164c-.315 0-.418-.195-.418-.485v-1.31h1.031v-.576zm-9.428 1.079v1.819h-.638V36.7c0-.491-.206-.764-.637-.764-.419 0-.71.267-.71.77v1.607h-.637V36.7c0-.491-.212-.764-.63-.764-.432 0-.711.267-.711.77v1.607H8.83v-2.898h.631v.358c.237-.34.54-.43.85-.43.443 0 .758.194.958.515.267-.407.65-.522 1.02-.516.704.006 1.14.467 1.14 1.152z" fill="#231F20"/><path d="M29.452 30.493h-9.558v-17.16h9.558v17.16z" fill="#FF5F00"/><path d="M20.5 21.913c0-3.48 1.632-6.581 4.172-8.58A10.882 10.882 0 0017.922 11C11.89 11 7 15.886 7 21.913c0 6.028 4.89 10.914 10.922 10.914 2.548 0 4.892-.873 6.75-2.334a10.891 10.891 0 01-4.172-8.58z" fill="#EB001B"/><path d="M42.345 21.913c0 6.028-4.89 10.914-10.922 10.914-2.548 0-4.893-.873-6.751-2.334a10.89 10.89 0 004.172-8.58 10.89 10.89 0 00-4.172-8.58A10.885 10.885 0 0131.422 11c6.033 0 10.923 4.886 10.923 10.913z" fill="#F79E1B"/></svg>