<svg width="50" height="50" fill="none" xmlns="http://www.w3.org/2000/svg"><path fill="#fff" stroke="#252726" d="M.5.5h49v49H.5z"/><path fill-rule="evenodd" clip-rule="evenodd" d="M10.31 20.002l.05-.001c.36-.006 1.24-.021 1.623 1.28.27.922.703 2.432 1.295 4.53h.242a809.982 809.982 0 011.31-4.53c.382-1.299 1.304-1.286 1.75-1.28h3.218v9.83H16.6v-5.793h-.215l-1.783 5.793h-2.406l-1.783-5.797h-.215v5.797H7v-9.83h3.31zm14.081 0v5.797h.255l2.169-4.767c.421-.948 1.318-1.03 1.318-1.03h3.095v9.83h-3.265v-5.798h-.255l-2.126 4.767c-.421.945-1.361 1.03-1.361 1.03h-3.095v-9.83h3.265zm14.654 6.901c1.584 0 3.014-.93 3.47-2.23h-10v5.158h3.106v-2.928h3.424z" fill="#40A548"/><path d="M39.194 20.002h-6.842c.163 2.188 2.035 4.062 3.972 4.062h6.406c.37-1.82-.903-4.062-3.536-4.062z" fill="#1291D0"/></svg>