<svg width="50" height="50" fill="none" xmlns="http://www.w3.org/2000/svg"><path fill="#fff" stroke="#252726" d="M.5.5h49v49H.5z"/><path fill-rule="evenodd" clip-rule="evenodd" d="M22.264 24.862l.21-1.352-.466-.01h-2.224l1.546-9.975a.132.132 0 01.043-.078.125.125 0 01.082-.03h3.75c1.244 0 2.103.263 2.552.783.21.245.344.5.409.78.067.295.069.647.002 1.076l-.005.031v.276l.21.12c.178.096.319.206.426.331.18.209.297.474.346.789.05.323.034.708-.05 1.144a4.073 4.073 0 01-.46 1.295 2.653 2.653 0 01-.73.814 2.932 2.932 0 01-.982.45 4.82 4.82 0 01-1.228.145h-.292a.875.875 0 00-.57.214.903.903 0 00-.297.54l-.022.122-.37 2.382-.016.088c-.005.027-.012.041-.024.05a.061.061 0 01-.038.015h-1.802z" fill="#28356A"/><path fill-rule="evenodd" clip-rule="evenodd" d="M28.573 16.12a6.697 6.697 0 01-.038.223c-.495 2.584-2.186 3.477-4.347 3.477h-1.1a.537.537 0 00-.528.46l-.723 4.667a.285.285 0 00.278.331h1.951c.231 0 .428-.17.464-.402l.02-.101.366-2.373.024-.13a.472.472 0 01.464-.404h.291c1.89 0 3.37-.781 3.803-3.042.18-.944.087-1.733-.39-2.287a1.868 1.868 0 00-.535-.42z" fill="#298FC2"/><path fill-rule="evenodd" clip-rule="evenodd" d="M28.056 15.91a3.823 3.823 0 00-.48-.11 6.008 6.008 0 00-.97-.071h-2.939a.476.476 0 00-.463.404l-.625 4.03-.018.118a.537.537 0 01.528-.46h1.1c2.16 0 3.852-.894 4.346-3.478a5.5 5.5 0 00.038-.223 2.596 2.596 0 00-.517-.21z" fill="#22284F"/><path fill-rule="evenodd" clip-rule="evenodd" d="M23.203 16.133a.475.475 0 01.463-.404h2.94c.347 0 .672.024.969.072a4.373 4.373 0 01.48.109l.112.035c.146.05.281.107.406.174.148-.954 0-1.605-.508-2.193-.56-.649-1.569-.926-2.86-.926h-3.75a.539.539 0 00-.529.461l-1.562 10.076c-.03.2.12.38.318.38h2.315l1.206-7.785zM11.218 27.605H8.484a.382.382 0 00-.376.327l-1.105 7.135a.23.23 0 00.225.268h1.305a.382.382 0 00.376-.327l.298-1.925a.382.382 0 01.375-.326h.865c1.801 0 2.84-.887 3.112-2.645.122-.769.005-1.373-.349-1.796-.388-.465-1.078-.71-1.992-.71zm.315 2.606c-.15.999-.9.999-1.624.999h-.412l.29-1.865a.229.229 0 01.224-.196h.19c.493 0 .959 0 1.2.287.143.17.187.424.132.775zm7.927-.086h-1.31a.23.23 0 00-.225.196l-.058.372-.091-.135C17.492 30.14 16.86 30 16.23 30c-1.447 0-2.683 1.115-2.923 2.68-.125.78.053 1.526.487 2.046.4.479.97.678 1.65.678 1.165 0 1.811-.763 1.811-.763l-.058.37a.23.23 0 00.225.27H18.6a.382.382 0 00.375-.328l.707-4.56a.23.23 0 00-.224-.268zm-1.826 2.594c-.126.76-.72 1.272-1.476 1.272-.38 0-.684-.124-.88-.36-.193-.233-.266-.565-.205-.935.118-.755.722-1.283 1.467-1.283.372 0 .674.126.873.363.2.24.279.574.221.943zm8.696-2.479h-1.316a.379.379 0 00-.314.169l-1.815 2.72-.769-2.614a.382.382 0 00-.364-.276h-1.293a.231.231 0 00-.216.307l1.449 4.328-1.363 1.958c-.107.154.001.366.186.366h1.314a.378.378 0 00.312-.166l4.376-6.429c.105-.153-.003-.364-.187-.364z" fill="#28356A"/><path fill-rule="evenodd" clip-rule="evenodd" d="M30.716 27.605H27.98a.382.382 0 00-.375.327L26.5 35.067a.23.23 0 00.225.268h1.403c.13 0 .241-.097.262-.229l.314-2.023a.382.382 0 01.375-.326h.865c1.8 0 2.84-.887 3.111-2.645.123-.769.005-1.373-.349-1.796-.388-.465-1.076-.71-1.991-.71zm.315 2.606c-.15.999-.899.999-1.624.999h-.412l.29-1.865a.228.228 0 01.225-.196h.189c.493 0 .96 0 1.2.287.143.17.187.424.132.775zm7.925-.086h-1.309a.228.228 0 00-.224.196l-.058.372-.092-.135c-.284-.418-.915-.558-1.546-.558-1.447 0-2.682 1.115-2.922 2.68-.125.78.052 1.526.487 2.046.4.479.97.678 1.649.678 1.165 0 1.812-.763 1.812-.763l-.059.37a.23.23 0 00.226.27h1.179a.382.382 0 00.375-.328l.707-4.56a.231.231 0 00-.225-.268zm-1.825 2.594c-.126.76-.72 1.272-1.477 1.272-.38 0-.684-.124-.88-.36-.193-.233-.265-.565-.205-.935.12-.755.722-1.283 1.467-1.283.372 0 .674.126.873.363.2.24.28.574.222.943zm3.259-4.917l-1.123 7.265a.23.23 0 00.225.268h1.128a.381.381 0 00.375-.327l1.107-7.135a.23.23 0 00-.225-.268h-1.263a.23.23 0 00-.224.197z" fill="#298FC2"/></svg>