<svg width="50" height="50" fill="none" xmlns="http://www.w3.org/2000/svg"><path fill="#fff" stroke="#252726" d="M.5.5h49v49H.5z"/><path d="M34.823 30.887c-.219 0-.523-.262-.85-.783-.328-.521-.46-1.11-.284-1.412.108-.195.328-.282.631-.175.547.195.763 1.042.83 1.435.089.652-.11.935-.327.935zm-2.248 2.194c-.195.26-.523.39-.894.39s-.763-.13-1.026-.37c-.611-.52-.783-1.39-.392-1.868.152-.195.415-.303.699-.303.371.02.763.172 1.09.454.675.565.871 1.24.523 1.697zm7.811 7.774c.348.306.807-.063.503-.453-3.406-4.282-6.545-5.086-9.667-5.781-3.838-.847-5.802-2.998-7.176-5.344-.284-.478-.392-.39-.415.218-.02.74.023 1.718.195 2.672h-.455c-5.478 0-9.927-4.433-9.927-9.885 0-5.451 4.449-9.884 9.927-9.884 5.475 0 9.923 4.433 9.923 9.884 0 .394-.02.784-.064 1.153-.719-.13-2.16-.154-3.162-.067-.372.024-.328.219-.044.262 3.27.585 5.542 2.608 6.041 6.299.024.087.132.11.176.044a14.769 14.769 0 002.116-7.667c0-8.255-6.72-14.946-15.01-14.946s-15.01 6.69-15.01 14.946c0 8.255 6.72 14.943 15.01 14.943 2.204 0 4.385-.433 7.591-.433 2.88 0 6.002.978 9.448 4.04z" fill="#FF8C00"/></svg>