<svg width="50" height="50" fill="none" xmlns="http://www.w3.org/2000/svg"><path fill="#fff" stroke="#252726" d="M.5.5h49v49H.5z"/><path d="M22.42 30.569h-2.882l1.803-10.381h2.883l-1.803 10.38zm10.451-10.127A7.569 7.569 0 0030.286 20c-2.847 0-4.852 1.413-4.864 3.434-.024 1.491 1.435 2.32 2.526 2.816 1.116.509 1.495.84 1.495 1.293-.012.695-.902 1.016-1.732 1.016-1.15 0-1.767-.165-2.704-.552l-.38-.166-.403 2.33c.676.287 1.921.541 3.215.553 3.025 0 4.994-1.392 5.017-3.546.012-1.181-.759-2.087-2.42-2.827-1.008-.475-1.625-.795-1.625-1.28.011-.443.522-.895 1.66-.895a5.21 5.21 0 012.147.397l.261.11.392-2.241z" fill="#15195A"/><path fill-rule="evenodd" clip-rule="evenodd" d="M38.03 20.188h2.23l2.327 10.38h-2.67s-.26-1.192-.344-1.557h-3.701l-.605 1.558h-3.025l4.282-9.52c.297-.673.82-.861 1.507-.861zm-.177 3.799l-1.15 2.904h2.395a857.56 857.56 0 01-.664-3.004l-.201-.894c-.085.23-.208.547-.29.76a7.397 7.397 0 00-.09.234zm-23.546 3.28l2.823-7.079h3.049l-4.532 10.37H12.6l-2.57-9.02A12.263 12.263 0 007 20.398l.047-.21h4.639c.628.022 1.138.21 1.304.873l1.008 4.768v.002l.31 1.436z" fill="#15195A"/></svg>