<svg width="50" height="50" fill="none" xmlns="http://www.w3.org/2000/svg"><path fill="#fff" stroke="#252726" d="M.5.5h49v49H.5z"/><g clip-path="url(#clip0)"><path d="M30.317 7.09l-16.92 10.796a5.064 5.064 0 00-1.719 1.83 5.016 5.016 0 00-.621 2.424l-.036 17.366c0 .678.27 1.327.752 1.807.483.48 1.137.75 1.82.75h22.376c.544 0 1.066-.216 1.451-.598a2.03 2.03 0 00.603-1.439V21.829c0-.762-.622-1.386-1.397-1.386H30.52l.041-13.221a.155.155 0 00-.082-.14.159.159 0 00-.162.008z" fill="url(#paint0_linear)"/><path d="M38.015 33.949l-21.342 5.363c-.489.125-.775-.526-.356-.803l14.182-9.203.007-8.863h6.364c.636 0 1.145.506 1.145 1.136v12.37z" fill="url(#paint1_linear)"/><path d="M25.737 22.987c.98-1.127 1.177-2.553.438-3.186-.739-.633-2.133-.232-3.114.895-.98 1.127-1.177 2.553-.438 3.186.739.633 2.133.232 3.114-.895z" fill="#171717"/></g><defs><linearGradient id="paint0_linear" x1="9.014" y1="14.122" x2="38.478" y2="28.717" gradientUnits="userSpaceOnUse"><stop stop-color="#FFF000"/><stop offset=".598" stop-color="gold"/><stop offset="1" stop-color="#FC0"/></linearGradient><linearGradient id="paint1_linear" x1="23.956" y1="29.827" x2="45.951" y2="25.689" gradientUnits="userSpaceOnUse"><stop stop-color="#F0B200"/><stop offset="1" stop-color="#FFD900"/></linearGradient><clipPath id="clip0"><path fill="#fff" transform="translate(11 7)" d="M0 0h27v35H0z"/></clipPath></defs></svg>