<svg width="35" height="28" xmlns="http://www.w3.org/2000/svg"><path d="M35 3.294a14.509 14.509 0 01-4.116 1.137A7.1 7.1 0 0034.03.51a14.594 14.594 0 01-4.551 1.729C28.157.824 26.3 0 24.192 0c-3.931 0-7.144 3.162-7.144 7.066 0 .56.067 1.103.184 1.614a20.51 20.51 0 01-14.79-7.379 6.908 6.908 0 00-.97 3.541 6.926 6.926 0 003.196 5.864c-1.188 0-2.292-.33-3.263-.824v.05c0 3.426 2.476 6.292 5.756 6.934a7.166 7.166 0 01-3.23.115 7.147 7.147 0 006.693 4.908C8.18 23.8 5.086 24.92 1.706 24.92c-.568 0-1.137-.033-1.706-.099A20.551 20.551 0 0011.009 28c13.183 0 20.427-10.772 20.427-20.11 0-.314 0-.61-.016-.923A14.22 14.22 0 0035 3.294z"/></svg>