<svg width="35" height="35" xmlns="http://www.w3.org/2000/svg"><path d="M22.872 0H12.127C2.327 0 0 2.328 0 12.127v10.745C0 32.672 2.328 35 12.127 35h10.745C32.672 35 35 32.672 35 22.872V12.127C35 2.327 32.672 0 22.872 0zm5.39 24.973h-2.555c-.962 0-1.26-.788-2.957-2.52-1.54-1.453-2.205-1.663-2.573-1.663-.507 0-.665.14-.665.875v2.293c0 .612-.192.997-1.82.997-2.694 0-5.687-1.645-7.787-4.672-3.167-4.446-4.025-7.806-4.025-8.47 0-.368.123-.718.857-.718H9.31c.647 0 .893.28 1.137.98 1.26 3.675 3.36 6.825 4.218 6.825.333 0 .473-.157.473-.962v-3.763c-.088-1.715-1.015-1.873-1.015-2.485 0-.315.245-.595.647-.595h4.008c.542 0 .735.28.735.945v5.058c0 .542.227.735.402.735.315 0 .595-.193 1.172-.788 1.838-2.048 3.15-5.215 3.15-5.215.176-.367.456-.717 1.138-.717h2.503c.77 0 .945.402.77.944-.316 1.488-3.43 5.88-3.395 5.88-.28.438-.386.63 0 1.138.262.367 1.154 1.137 1.75 1.82 1.084 1.242 1.924 2.275 2.152 2.992.192.718-.158 1.085-.893 1.085z"/></svg>