<svg width="35" height="25" xmlns="http://www.w3.org/2000/svg"><path d="M14 17.857l9.082-5.357L14 7.143v10.714zM34.23 3.875c.228.84.385 1.964.49 3.393.123 1.428.175 2.66.175 3.732L35 12.5c0 3.91-.28 6.786-.77 8.625-.438 1.607-1.452 2.643-3.027 3.09-.823.231-2.328.392-4.638.5-2.275.124-4.358.178-6.283.178L17.5 25c-7.332 0-11.9-.286-13.703-.786-1.575-.446-2.59-1.482-3.027-3.089-.228-.84-.385-1.964-.49-3.393A43.834 43.834 0 01.105 14L0 12.5c0-3.91.28-6.786.77-8.625.438-1.607 1.453-2.643 3.027-3.09.823-.231 2.328-.392 4.638-.5a114.31 114.31 0 016.282-.178L17.5 0c7.332 0 11.9.286 13.703.786 1.575.446 2.59 1.482 3.027 3.089z"/></svg>