<svg width="40" height="40" fill="none" xmlns="http://www.w3.org/2000/svg"><path d="M16.965 24.688l3.03-3.03 7.717 7.716-3.03 3.03-7.717-7.717zm6.065 9.374l-7.717-7.717-3.03 3.03L20 37.17l3.03-3.109zm3.31-9.374l7.716-7.717 3.03 3.03-7.716 7.717-3.03-3.03zM40 22.829l-1.172-1.172-3.108 3.03L40 28.89v-6.061zM7.592 24.686l7.717-7.717 3.03 3.03-7.717 7.717-3.03-3.03zM35.72 5.938L40 10.14V1.657l-4.28 4.28zM2.905 19.998l7.717-7.716 3.03 3.03-7.717 7.717-3.03-3.03zM21.653 20l7.717-7.716 3.03 3.03-7.717 7.717-3.03-3.03zm4.692-14.062l3.03 3.03L38.343 0h-6.139l-5.86 5.938zM40 13.454l-5.937-5.86-3.03 3.031L40 19.515v-6.06zM16.97 5.938l7.718 7.718 3.03-3.03L20 2.828l-3.03 3.109zm-4.69 4.688l3.03-3.03 7.716 7.717-3.03 3.03-7.716-7.717zm20.126 23.436l-3.03-3.03L20.485 40h6.06l5.86-5.938zm-14.063 4.766l-3.03-3.109L11.11 40h6.061l1.172-1.171zm-4.688-4.766l-3.03-3.03L1.657 40h6.14l5.859-5.938zm20.408-7.717l-3.03 3.03L40 38.343v-6.14l-5.937-5.859zM0 29.86v8.483l4.28-4.28L0 29.86zm34.063 5.86L29.86 40h8.483l-4.28-4.28zM21.657 1.172l3.03 3.108L28.89 0h-6.06l-1.173 1.172zM5.938 4.28L10.14 0H1.657l4.28 4.28zm0 28.125l3.03-3.03L0 20.485v6.06l5.938 5.86zM7.595 5.938l3.03 3.03L19.515 0h-6.06l-5.86 5.938zm-1.657 7.717l3.03-3.03L0 1.657v6.14l5.938 5.859zm-4.766 4.688l3.108-3.03L0 11.11v6.061l1.172 1.172z" fill="#252726"/><path stroke="#252726" stroke-width="2" d="M1 1h38v38H1z"/><path fill="#252726" d="M0 20h20v20H0z"/></svg>