<svg width="40" height="40" fill="none" xmlns="http://www.w3.org/2000/svg"><path fill="#252726" d="M0 0h40v40H0z"/><path d="M29.706 9L20 18.706 21.294 20 31 10.294 29.706 9zm-7.441.324a1.941 1.941 0 100 3.882 1.941 1.941 0 000-3.882zm6.47 6.47a1.94 1.94 0 100 3.882 1.94 1.94 0 000-3.882z" fill="#fff"/><path d="M13.424 18.521a18.452 18.452 0 008.055 8.055l2.689-2.69c.342-.342.819-.44 1.246-.305a13.9 13.9 0 004.364.697A1.222 1.222 0 0131 25.5v4.278A1.222 1.222 0 0129.778 31 20.778 20.778 0 019 10.222 1.222 1.222 0 0110.222 9H14.5a1.222 1.222 0 011.222 1.222c0 1.528.245 2.995.697 4.364.134.427.037.904-.306 1.246l-2.689 2.69z" fill="#fff"/></svg>