<svg width="40" height="40" fill="none" xmlns="http://www.w3.org/2000/svg"><path fill="#252726" d="M0 0h40v40H0z"/><path d="M24.208 18.234a1.263 1.263 0 001.43-.823l1.078-3.081a.312.312 0 00-.45-.373l-.808.466-2.13-3.688A1.47 1.47 0 0022.056 10h-3.277c-.525 0-1.01.28-1.273.735l-2.285 3.958a.728.728 0 00.267.995l2.47 1.427a.728.728 0 00.995-.267l1.464-2.537 1.308 2.267-.81.468a.312.312 0 00.098.576l3.195.612zm6.852 6.872a1.47 1.47 0 00-.01-1.47l-2.315-3.938a.729.729 0 00-.997-.26l-2.46 1.445a.728.728 0 00-.26.997l1.484 2.525-2.617.02-.007-.936a.312.312 0 00-.55-.2l-2.109 2.477a1.263 1.263 0 00.01 1.65l2.148 2.458c.19.218.55.082.547-.207l-.007-.933 4.259-.032a1.47 1.47 0 001.267-.744l1.618-2.852zm-14.085-.666l-2.929-.011 1.319-2.261.808.471a.312.312 0 00.453-.37L15.57 19.19a1.263 1.263 0 00-1.424-.833l-3.21.593a.312.312 0 00-.1.576l.805.47-2.146 3.679a1.47 1.47 0 00-.006 1.47l1.628 2.846c.26.456.745.738 1.27.74l4.568.018a.728.728 0 00.732-.725l.012-2.853a.728.728 0 00-.725-.731z" fill="#fff"/></svg>