<svg width="85" height="40" fill="none" xmlns="http://www.w3.org/2000/svg"><path fill="#252726" d="M0 20h85v20H0z"/><path stroke="#252726" stroke-width="2" d="M1 1h83v38H1z"/><path stroke="#fff" stroke-width="2" d="M49 26h30"/><path d="M58.714 17.25H57.5V11.7c0-.445.183-.875.516-1.195.334-.321.79-.505 1.27-.505h3.428c.48 0 .936.184 1.27.505.333.32.516.75.516 1.195v5.55h-1.714v8.25h-3.572v-8.25h-.5zM61 4.5c.48 0 .936.184 1.27.505.332.32.516.75.516 1.195 0 .445-.184.875-.517 1.195-.333.321-.79.505-1.269.505-.48 0-.936-.184-1.27-.505a1.659 1.659 0 01-.516-1.195c0-.445.184-.875.517-1.195.333-.321.79-.505 1.269-.505z" fill="#fff" stroke="#252726"/><path d="M61.714 17.25H60.5V11.7c0-.445.183-.875.516-1.195.334-.321.79-.505 1.27-.505h3.428c.48 0 .936.184 1.27.505.333.32.516.75.516 1.195v5.55h-1.714v8.25h-3.572v-8.25h-.5zM64 4.5c.48 0 .936.184 1.27.505.332.32.516.75.516 1.195 0 .445-.184.875-.517 1.195-.333.321-.79.505-1.269.505-.48 0-.936-.184-1.27-.505a1.659 1.659 0 01-.516-1.195c0-.445.184-.875.517-1.195.333-.321.79-.505 1.269-.505z" fill="#fff" stroke="#252726"/><path d="M64.714 17.25H63.5V11.7c0-.445.183-.875.516-1.195.334-.321.79-.505 1.27-.505h3.428c.48 0 .936.184 1.27.505.333.32.516.75.516 1.195v5.55h-1.714v8.25h-3.572v-8.25h-.5zM67 4.5c.48 0 .936.184 1.27.505.332.32.516.75.516 1.195 0 .445-.184.875-.517 1.195-.333.321-.79.505-1.269.505-.48 0-.936-.184-1.27-.505a1.659 1.659 0 01-.516-1.195c0-.445.184-.875.517-1.195.333-.321.79-.505 1.269-.505z" fill="#fff" stroke="#252726"/><path d="M63.629 36h-4.78v-.815l2.368-2.583c.342-.381.584-.699.727-.953a1.54 1.54 0 00.22-.771c0-.339-.096-.612-.288-.82-.189-.209-.444-.313-.767-.313-.384 0-.682.117-.893.352-.212.234-.318.555-.318.962h-1.186c0-.433.098-.822.293-1.167.198-.349.48-.619.845-.81a2.703 2.703 0 011.27-.289c.69 0 1.233.174 1.63.522.4.345.6.824.6 1.436 0 .355-.1.727-.302 1.118-.199.388-.526.829-.982 1.323l-1.738 1.86h3.3V36zm2.275-4.097h.723c.365-.003.653-.097.864-.283.215-.185.323-.454.323-.806 0-.338-.09-.6-.27-.786-.175-.188-.445-.283-.81-.283-.319 0-.58.093-.786.278a.915.915 0 00-.307.718h-1.187c0-.364.096-.696.288-.996.195-.3.466-.532.81-.698a2.63 2.63 0 011.168-.254c.71 0 1.266.179 1.67.537.406.355.61.85.61 1.485 0 .319-.103.62-.308.903a1.89 1.89 0 01-.786.634c.39.134.687.344.889.63.205.287.308.629.308 1.026 0 .638-.22 1.146-.66 1.523-.436.378-1.01.567-1.723.567-.684 0-1.244-.183-1.68-.547-.436-.365-.654-.85-.654-1.455h1.186c0 .312.104.566.313.761.211.196.495.293.85.293.367 0 .657-.097.868-.293.212-.195.318-.478.318-.85 0-.373-.11-.662-.332-.863-.221-.202-.55-.303-.986-.303h-.699v-.938z" fill="#fff"/><path d="M18.2 24.206h-.5V35.5H9.2V20.441H4.312L22 4.67l17.688 15.77H34.8V35.5h-8.5V24.206h-8.1z" fill="#fff" stroke="#252726"/></svg>