<svg width="85" height="40" fill="none" xmlns="http://www.w3.org/2000/svg"><path fill="#252726" d="M0 20h85v20H0z"/><path stroke="#252726" stroke-width="2" d="M1 1h83v38H1z"/><path stroke="#fff" stroke-width="2" d="M49 26h30"/><path d="M59.714 17.25H58.5V11.7c0-.445.183-.875.516-1.195.334-.321.79-.505 1.27-.505h3.428c.48 0 .936.184 1.27.505.333.32.516.75.516 1.195v5.55h-1.714v8.25h-3.572v-8.25h-.5zM62 4.5c.48 0 .936.184 1.27.505.332.32.516.75.516 1.195 0 .445-.184.875-.517 1.195-.333.321-.79.505-1.269.505-.48 0-.936-.184-1.27-.505a1.659 1.659 0 01-.516-1.195c0-.445.184-.875.517-1.195.333-.321.79-.505 1.269-.505z" fill="#fff" stroke="#252726"/><path d="M62.714 17.25H61.5V11.7c0-.445.183-.875.516-1.195.334-.321.79-.505 1.27-.505h3.428c.48 0 .936.184 1.27.505.333.32.516.75.516 1.195v5.55h-1.714v8.25h-3.572v-8.25h-.5zM65 4.5c.48 0 .936.184 1.27.505.332.32.516.75.516 1.195 0 .445-.184.875-.517 1.195-.333.321-.79.505-1.269.505-.48 0-.936-.184-1.27-.505a1.659 1.659 0 01-.516-1.195c0-.445.184-.875.517-1.195.333-.321.79-.505 1.269-.505z" fill="#fff" stroke="#252726"/><path d="M63.629 36h-4.78v-.815l2.368-2.583c.342-.381.584-.699.727-.953a1.54 1.54 0 00.22-.771c0-.339-.096-.612-.288-.82-.189-.209-.444-.313-.767-.313-.384 0-.682.117-.893.352-.212.234-.318.555-.318.962h-1.186c0-.433.098-.822.293-1.167.198-.349.48-.619.845-.81a2.703 2.703 0 011.27-.289c.69 0 1.233.174 1.63.522.4.345.6.824.6 1.436 0 .355-.1.727-.302 1.118-.199.388-.526.829-.982 1.323l-1.738 1.86h3.3V36zm5.684 0h-4.78v-.815l2.367-2.583c.342-.381.585-.699.728-.953a1.55 1.55 0 00.22-.771c0-.339-.096-.612-.288-.82-.19-.209-.445-.313-.767-.313-.384 0-.682.117-.894.352-.211.234-.317.555-.317.962h-1.186c0-.433.097-.822.293-1.167.198-.349.48-.619.844-.81a2.703 2.703 0 011.27-.289c.69 0 1.234.174 1.63.522.401.345.601.824.601 1.436 0 .355-.1.727-.303 1.118-.198.388-.525.829-.981 1.323l-1.738 1.86h3.3V36z" fill="#fff"/><path d="M18.2 24.206h-.5V35.5H9.2V20.441H4.312L22 4.67l17.688 15.77H34.8V35.5h-8.5V24.206h-8.1z" fill="#fff" stroke="#252726"/></svg>