<svg width="85" height="40" fill="none" xmlns="http://www.w3.org/2000/svg"><path fill="#252726" d="M0 20h85v20H0z"/><path stroke="#252726" stroke-width="2" d="M1 1h83v38H1z"/><path stroke="#fff" stroke-width="2" d="M49 26h30"/><path d="M59.714 17.25H58.5V11.7c0-.445.183-.875.516-1.195.334-.321.79-.505 1.27-.505h3.428c.48 0 .936.184 1.27.505.333.32.516.75.516 1.195v5.55h-1.714v8.25h-3.572v-8.25h-.5zM62 4.5c.48 0 .936.184 1.27.505.332.32.516.75.516 1.195 0 .445-.184.875-.517 1.195-.333.321-.79.505-1.269.505-.48 0-.936-.184-1.27-.505a1.659 1.659 0 01-.516-1.195c0-.445.184-.875.517-1.195.333-.321.79-.505 1.269-.505z" fill="#fff" stroke="#252726"/><path d="M62.714 17.25H61.5V11.7c0-.445.183-.875.516-1.195.334-.321.79-.505 1.27-.505h3.428c.48 0 .936.184 1.27.505.333.32.516.75.516 1.195v5.55h-1.714v8.25h-3.572v-8.25h-.5zM65 4.5c.48 0 .936.184 1.27.505.332.32.516.75.516 1.195 0 .445-.184.875-.517 1.195-.333.321-.79.505-1.269.505-.48 0-.936-.184-1.27-.505a1.659 1.659 0 01-.516-1.195c0-.445.184-.875.517-1.195.333-.321.79-.505 1.269-.505z" fill="#fff" stroke="#252726"/><path d="M62.862 33.466h.884v.952h-.884V36h-1.186v-1.582h-3.072l-.034-.723 3.067-4.804h1.225v4.575zm-3.047 0h1.86v-2.969l-.087.156-1.773 2.813zM69.313 36h-4.78v-.815l2.367-2.583c.342-.381.585-.699.728-.953a1.55 1.55 0 00.22-.771c0-.339-.096-.612-.288-.82-.19-.209-.445-.313-.767-.313-.384 0-.682.117-.894.352-.211.234-.317.555-.317.962h-1.186c0-.433.097-.822.293-1.167.198-.349.48-.619.844-.81a2.703 2.703 0 011.27-.289c.69 0 1.234.174 1.63.522.401.345.601.824.601 1.436 0 .355-.1.727-.303 1.118-.198.388-.525.829-.981 1.323l-1.738 1.86h3.3V36z" fill="#fff"/><path d="M9.2 29.1h-.5v4.2h7.4v-4.2H9.2zm0-6.4h-.5v4.2h17v-4.2H9.2zm9.6 6.4h-.5v4.2h7.4v-4.2h-6.9zm9.6-6.4h-.5v4.2h7.4v-4.2h-6.9zm0 6.4h-.5v4.2h7.4v-4.2h-6.9zm9.1-9.075V35.5h-31V14.64l7.188 5.75.812.65v-6.4l7.188 5.75.812.65v-6.4l7.188 5.75.718.575.091-.915L32.053 4.5h3.895L37.5 20.025z" fill="#fff" stroke="#252726"/></svg>