<svg width="85" height="40" fill="none" xmlns="http://www.w3.org/2000/svg"><path fill="#252726" d="M12 6h22v15H12z"/><path fill="#252726" d="M0 20h85v20H0z"/><path stroke="#252726" stroke-width="2" d="M1 1h83v38H1z"/><path d="M21.143 29.278h-.5V35.5H10.5v-31h25v31H25.357v-6.222h-4.214zM13.714 7.056h-.5v4.555h4.715V7.056h-4.215zm7.429 0h-.5v4.555h4.714V7.056h-4.214zm7.428 0h-.5v4.555h4.715V7.056H28.57zm-14.857 7.11h-.5v4.556h4.715v-4.555h-4.215zm7.429 0h-.5v4.556h4.714v-4.555h-4.214zm7.428 0h-.5v4.556h4.715v-4.555H28.57zm-14.857 7.112h-.5v4.555h4.715v-4.555h-4.215zm7.429 0h-.5v4.555h4.714v-4.555h-4.214zm7.428 0h-.5v4.555h4.715v-4.555H28.57zm-14.857 7.11h-.5v4.556h4.715V28.39h-4.215zm14.857 0h-.5v4.556h4.715V28.39H28.57z" fill="#fff" stroke="#252726"/><path stroke="#fff" stroke-width="2" d="M49 26h30"/><path d="M61.714 17.25H60.5V11.7c0-.445.183-.875.516-1.195.334-.321.79-.505 1.27-.505h3.428c.48 0 .936.184 1.27.505.333.32.516.75.516 1.195v5.55h-1.714v8.25h-3.572v-8.25h-.5zM64 4.5c.48 0 .936.184 1.27.505.332.32.516.75.516 1.195 0 .445-.184.875-.517 1.195-.333.321-.79.505-1.269.505-.48 0-.936-.184-1.27-.505a1.659 1.659 0 01-.516-1.195c0-.445.184-.875.517-1.195.333-.321.79-.505 1.269-.505z" fill="#fff" stroke="#252726"/><path d="M60.22 31.903h.723c.365-.003.653-.097.865-.283.215-.185.322-.454.322-.806 0-.338-.09-.6-.269-.786-.175-.188-.446-.283-.81-.283-.32 0-.581.093-.786.278a.915.915 0 00-.308.718H58.77c0-.364.096-.696.289-.996.195-.3.465-.532.81-.698.348-.17.737-.254 1.167-.254.71 0 1.266.179 1.67.537.407.355.61.85.61 1.485 0 .319-.102.62-.307.903-.202.28-.464.491-.786.634.39.134.687.344.888.63.205.287.308.629.308 1.026 0 .638-.22 1.146-.66 1.523-.435.378-1.01.567-1.723.567-.684 0-1.243-.183-1.68-.547-.436-.365-.654-.85-.654-1.455h1.187c0 .312.104.566.312.761.212.196.495.293.85.293.368 0 .657-.097.869-.293.212-.195.317-.478.317-.85 0-.373-.11-.662-.332-.863-.221-.202-.55-.303-.986-.303h-.698v-.938zM67.746 36h-1.181v-5.708l-1.744.596v-1.001l2.774-1.02h.151V36z" fill="#fff"/></svg>