<svg width="85" height="40" fill="none" xmlns="http://www.w3.org/2000/svg"><path fill="#252726" d="M0 20h85v20H0z"/><path stroke="#252726" stroke-width="2" d="M1 1h83v38H1z"/><path stroke="#fff" stroke-width="2" d="M49 26h30"/><path d="M58.714 17.25H57.5V11.7c0-.445.183-.875.516-1.195.334-.321.79-.505 1.27-.505h3.428c.48 0 .936.184 1.27.505.333.32.516.75.516 1.195v5.55h-1.714v8.25h-3.572v-8.25h-.5zM61 4.5c.48 0 .936.184 1.27.505.332.32.516.75.516 1.195 0 .445-.184.875-.517 1.195-.333.321-.79.505-1.269.505-.48 0-.936-.184-1.27-.505a1.659 1.659 0 01-.516-1.195c0-.445.184-.875.517-1.195.333-.321.79-.505 1.269-.505z" fill="#fff" stroke="#252726"/><path d="M61.714 17.25H60.5V11.7c0-.445.183-.875.516-1.195.334-.321.79-.505 1.27-.505h3.428c.48 0 .936.184 1.27.505.333.32.516.75.516 1.195v5.55h-1.714v8.25h-3.572v-8.25h-.5zM64 4.5c.48 0 .936.184 1.27.505.332.32.516.75.516 1.195 0 .445-.184.875-.517 1.195-.333.321-.79.505-1.269.505-.48 0-.936-.184-1.27-.505a1.659 1.659 0 01-.516-1.195c0-.445.184-.875.517-1.195.333-.321.79-.505 1.269-.505z" fill="#fff" stroke="#252726"/><path d="M64.714 17.25H63.5V11.7c0-.445.183-.875.516-1.195.334-.321.79-.505 1.27-.505h3.428c.48 0 .936.184 1.27.505.333.32.516.75.516 1.195v5.55h-1.714v8.25h-3.572v-8.25h-.5zM67 4.5c.48 0 .936.184 1.27.505.332.32.516.75.516 1.195 0 .445-.184.875-.517 1.195-.333.321-.79.505-1.269.505-.48 0-.936-.184-1.27-.505a1.659 1.659 0 01-.516-1.195c0-.445.184-.875.517-1.195.333-.321.79-.505 1.269-.505z" fill="#fff" stroke="#252726"/><path d="M62.862 33.466h.884v.952h-.884V36h-1.186v-1.582h-3.072l-.034-.723 3.067-4.804h1.225v4.575zm-3.047 0h1.86v-2.969l-.087.156-1.773 2.813zm6.09-1.563h.722c.365-.003.653-.097.864-.283.215-.185.323-.454.323-.806 0-.338-.09-.6-.27-.786-.175-.188-.445-.283-.81-.283-.319 0-.58.093-.786.278a.915.915 0 00-.307.718h-1.187c0-.364.096-.696.288-.996.195-.3.466-.532.81-.698a2.63 2.63 0 011.168-.254c.71 0 1.266.179 1.67.537.406.355.61.85.61 1.485 0 .319-.103.62-.308.903a1.89 1.89 0 01-.786.634c.39.134.687.344.889.63.205.287.308.629.308 1.026 0 .638-.22 1.146-.66 1.523-.436.378-1.01.567-1.723.567-.684 0-1.244-.183-1.68-.547-.436-.365-.654-.85-.654-1.455h1.186c0 .312.104.566.313.761.211.196.495.293.85.293.367 0 .657-.097.868-.293.212-.195.318-.478.318-.85 0-.373-.11-.662-.332-.863-.221-.202-.55-.303-.986-.303h-.699v-.938z" fill="#fff"/><path d="M9.2 29.1h-.5v4.2h7.4v-4.2H9.2zm0-6.4h-.5v4.2h17v-4.2H9.2zm9.6 6.4h-.5v4.2h7.4v-4.2h-6.9zm9.6-6.4h-.5v4.2h7.4v-4.2h-6.9zm0 6.4h-.5v4.2h7.4v-4.2h-6.9zm9.1-9.075V35.5h-31V14.64l7.188 5.75.812.65v-6.4l7.188 5.75.812.65v-6.4l7.188 5.75.718.575.091-.915L32.053 4.5h3.895L37.5 20.025z" fill="#fff" stroke="#252726"/></svg>