<svg width="85" height="40" fill="none" xmlns="http://www.w3.org/2000/svg"><path fill="#252726" d="M0 20h85v20H0z"/><path stroke="#252726" stroke-width="2" d="M1 1h83v38H1z"/><path stroke="#fff" stroke-width="2" d="M49 26h30"/><path d="M61.714 17.25H60.5V11.7c0-.445.183-.875.516-1.195.334-.321.79-.505 1.27-.505h3.428c.48 0 .936.184 1.27.505.333.32.516.75.516 1.195v5.55h-1.714v8.25h-3.572v-8.25h-.5zM64 4.5c.48 0 .936.184 1.27.505.332.32.516.75.516 1.195 0 .445-.184.875-.517 1.195-.333.321-.79.505-1.269.505-.48 0-.936-.184-1.27-.505a1.659 1.659 0 01-.516-1.195c0-.445.184-.875.517-1.195.333-.321.79-.505 1.269-.505z" fill="#fff" stroke="#252726"/><path d="M62.862 33.466h.884v.952h-.884V36h-1.186v-1.582h-3.072l-.034-.723 3.067-4.804h1.225v4.575zm-3.047 0h1.86v-2.969l-.087.156-1.773 2.813zM67.745 36h-1.181v-5.708l-1.744.596v-1.001l2.774-1.02h.151V36z" fill="#fff"/><path d="M9.2 29.1h-.5v4.2h7.4v-4.2H9.2zm0-6.4h-.5v4.2h17v-4.2H9.2zm9.6 6.4h-.5v4.2h7.4v-4.2h-6.9zm9.6-6.4h-.5v4.2h7.4v-4.2h-6.9zm0 6.4h-.5v4.2h7.4v-4.2h-6.9zm9.1-9.075V35.5h-31V14.64l7.188 5.75.812.65v-6.4l7.188 5.75.812.65v-6.4l7.188 5.75.718.575.091-.915L32.053 4.5h3.895L37.5 20.025z" fill="#fff" stroke="#252726"/></svg>