<svg width="106" height="100" fill="none" xmlns="http://www.w3.org/2000/svg"><path d="M2.572 44.8C.049 43.4-.708 40.35.705 37.95L8.275 25c.554-1 1.412-1.7 2.371-2.1L50.159.9c.808-.6 1.817-.9 2.877-.9 1.06 0 2.069.3 2.876.9l39.866 22.2c.959.5 1.766 1.3 2.22 2.3l7.318 12.6c1.413 2.4.555 5.45-1.817 6.8l-5.046 2.9v24.8c0 1.9-1.06 3.55-2.675 4.4L55.912 99.1c-.807.6-1.817.9-2.877.9-1.06 0-2.068-.3-2.876-.9L10.293 76.9c-1.615-.85-2.675-2.5-2.675-4.4V44.8c-1.514.85-3.431.9-5.046 0zm50.463-34.05v33.5L83.112 27.5 53.036 10.75zm-35.324 58.8l30.278 16.9V52.9L17.711 36.05v33.5zm70.649 0v-16.1l-25.232 14.5c-1.665.9-3.532.85-5.046.05v18.45l30.278-16.9zM62.371 56.8l31.691-18.15-2.927-5.05-31.69 18.15 2.926 5.05z" fill="#252726"/></svg>