<svg width="137" height="100" fill="none" xmlns="http://www.w3.org/2000/svg"><path d="M24.91 0H137v75H24.91V0zm56.044 18.75c4.955 0 9.707 1.975 13.21 5.492A18.785 18.785 0 0199.637 37.5c0 4.973-1.968 9.742-5.471 13.258a18.647 18.647 0 01-13.21 5.492 18.647 18.647 0 01-13.21-5.492A18.785 18.785 0 0162.273 37.5c0-4.973 1.968-9.742 5.471-13.258a18.647 18.647 0 0113.21-5.492zM49.819 12.5c0 3.315-1.312 6.495-3.648 8.839A12.432 12.432 0 0137.364 25v25c3.303 0 6.47 1.317 8.806 3.661a12.523 12.523 0 013.648 8.839h62.273c0-3.315 1.312-6.495 3.648-8.839A12.43 12.43 0 01124.545 50V25a12.43 12.43 0 01-8.806-3.661 12.522 12.522 0 01-3.648-8.839H49.818zM0 25h12.454v62.5h99.637V100H0V25z" fill="#252726"/></svg>