<svg width="83" height="100" fill="none" xmlns="http://www.w3.org/2000/svg"><path d="M41.5 0C18.444 0 0 18.182 0 40.91v31.817c0 3.617 1.457 7.085 4.052 9.643a13.935 13.935 0 009.781 3.994h13.834V50H9.222v-9.09c0-8.44 3.4-16.533 9.454-22.5C24.73 12.443 32.94 9.09 41.5 9.09c8.56 0 16.77 3.353 22.824 9.32 6.053 5.967 9.454 14.06 9.454 22.5V50H55.333v36.364h18.445v4.545H41.5V100h27.667c3.668 0 7.187-1.437 9.781-3.994A13.539 13.539 0 0083 86.364V40.909C83 18.182 64.417 0 41.5 0z" fill="#252726"/></svg>