<svg width="140" height="140" fill="none" xmlns="http://www.w3.org/2000/svg"><path fill-rule="evenodd" clip-rule="evenodd" d="M54.788 31a3.5 3.5 0 00-3.5 3.5v19h37v-19a3.5 3.5 0 00-3.5-3.5h-30zm40.5 22.5v-19c0-5.799-4.701-10.5-10.5-10.5h-30c-5.8 0-10.5 4.701-10.5 10.5v19H25.502c-6.463 0-11.392 5.784-10.366 12.166l6.75 42a10.5 10.5 0 0010.366 8.834h75.071a10.5 10.5 0 0010.367-8.834l6.75-42c1.025-6.382-3.903-12.166-10.367-12.166H95.288zm-69.786 7a3.5 3.5 0 00-3.455 4.055l6.75 42a3.5 3.5 0 003.455 2.945h75.071a3.5 3.5 0 003.455-2.945l6.75-42a3.5 3.5 0 00-3.455-4.055h-88.57z" fill="#DD2B1C"/><path fill-rule="evenodd" clip-rule="evenodd" d="M54.788 31a3.5 3.5 0 00-3.5 3.5v19h37v-19a3.5 3.5 0 00-3.5-3.5h-30zm40.5 22.5v-19c0-5.799-4.701-10.5-10.5-10.5h-30c-5.8 0-10.5 4.701-10.5 10.5v19H25.502c-6.463 0-11.392 5.784-10.366 12.166l6.75 42a10.5 10.5 0 0010.366 8.834h75.071a10.5 10.5 0 0010.367-8.834l6.75-42c1.025-6.382-3.903-12.166-10.367-12.166H95.288zm-69.786 7a3.5 3.5 0 00-3.455 4.055l6.75 42a3.5 3.5 0 003.455 2.945h75.071a3.5 3.5 0 003.455-2.945l6.75-42a3.5 3.5 0 00-3.455-4.055h-88.57z" fill="url(#paint0_linear)"/><defs><linearGradient id="paint0_linear" x1="124.285" y1="30.852" x2="48.707" y2="139.703" gradientUnits="userSpaceOnUse"><stop stop-color="#FF5C00"/><stop offset="1" stop-color="#CD1000"/></linearGradient></defs></svg>