<svg width="140" height="140" fill="none" xmlns="http://www.w3.org/2000/svg"><path d="M122.5 26.25h-105A8.75 8.75 0 008.75 35v70a8.75 8.75 0 008.75 8.75h105a8.749 8.749 0 008.75-8.75V35a8.75 8.75 0 00-8.75-8.75zM112.875 35L70 64.662 27.125 35h85.75zM17.5 105V38.981l50.006 34.607a4.374 4.374 0 004.988 0L122.5 38.98V105h-105z" fill="#DD2B1C"/><path d="M122.5 26.25h-105A8.75 8.75 0 008.75 35v70a8.75 8.75 0 008.75 8.75h105a8.749 8.749 0 008.75-8.75V35a8.75 8.75 0 00-8.75-8.75zM112.875 35L70 64.662 27.125 35h85.75zM17.5 105V38.981l50.006 34.607a4.374 4.374 0 004.988 0L122.5 38.98V105h-105z" fill="url(#paint0_linear)"/><defs><linearGradient id="paint0_linear" x1="130.926" y1="32.731" x2="64.275" y2="146.18" gradientUnits="userSpaceOnUse"><stop stop-color="#FF5C00"/><stop offset="1" stop-color="#CD1000"/></linearGradient></defs></svg>