<svg width="140" height="140" fill="none" xmlns="http://www.w3.org/2000/svg"><path d="M109.375 70v-4.375A39.373 39.373 0 0070 26.25a39.375 39.375 0 00-39.375 39.375V70a21.875 21.875 0 000 43.75h8.75V65.625a30.625 30.625 0 0161.25 0v48.125h8.75a21.875 21.875 0 000-43.75zM17.5 91.875A13.125 13.125 0 0130.625 78.75V105A13.127 13.127 0 0117.5 91.875zM109.375 105V78.75a13.127 13.127 0 019.281 22.406 13.128 13.128 0 01-9.281 3.844z" fill="#DD2B1C"/><path d="M109.375 70v-4.375A39.373 39.373 0 0070 26.25a39.375 39.375 0 00-39.375 39.375V70a21.875 21.875 0 000 43.75h8.75V65.625a30.625 30.625 0 0161.25 0v48.125h8.75a21.875 21.875 0 000-43.75zM17.5 91.875A13.125 13.125 0 0130.625 78.75V105A13.127 13.127 0 0117.5 91.875zM109.375 105V78.75a13.127 13.127 0 019.281 22.406 13.128 13.128 0 01-9.281 3.844z" fill="url(#paint0_linear)"/><defs><linearGradient id="paint0_linear" x1="130.926" y1="32.731" x2="64.275" y2="146.18" gradientUnits="userSpaceOnUse"><stop stop-color="#FF5C00"/><stop offset="1" stop-color="#CD1000"/></linearGradient></defs></svg>