<svg width="140" height="140" fill="none" xmlns="http://www.w3.org/2000/svg"><path d="M91.874 87.5a4.375 4.375 0 000 8.75h17.5a4.377 4.377 0 004.375-4.374 4.377 4.377 0 00-4.375-4.375h-17.5z" fill="#DD2B1C"/><path d="M91.874 87.5a4.375 4.375 0 000 8.75h17.5a4.377 4.377 0 004.375-4.374 4.377 4.377 0 00-4.375-4.375h-17.5z" fill="url(#paint0_linear)"/><path d="M8.908 44.228a17.5 17.5 0 0117.5-17.5h87.5a17.503 17.503 0 0117.5 17.5v52.5a17.503 17.503 0 01-17.5 17.501h-87.5a17.5 17.5 0 01-17.5-17.5v-52.5zm113.75 0a8.75 8.75 0 00-8.75-8.75h-87.5a8.75 8.75 0 00-8.75 8.75v8.75h105v-8.75zm-105 52.5a8.75 8.75 0 008.75 8.751h87.5a8.749 8.749 0 008.75-8.75v-35h-105v35z" fill="#DD2B1C"/><path d="M8.908 44.228a17.5 17.5 0 0117.5-17.5h87.5a17.503 17.503 0 0117.5 17.5v52.5a17.503 17.503 0 01-17.5 17.501h-87.5a17.5 17.5 0 01-17.5-17.5v-52.5zm113.75 0a8.75 8.75 0 00-8.75-8.75h-87.5a8.75 8.75 0 00-8.75 8.75v8.75h105v-8.75zm-105 52.5a8.75 8.75 0 008.75 8.751h87.5a8.749 8.749 0 008.75-8.75v-35h-105v35z" fill="url(#paint1_linear)"/><defs><linearGradient id="paint0_linear" x1="131.084" y1="33.21" x2="64.433" y2="146.659" gradientUnits="userSpaceOnUse"><stop stop-color="#FF5C00"/><stop offset="1" stop-color="#CD1000"/></linearGradient><linearGradient id="paint1_linear" x1="131.084" y1="33.21" x2="64.433" y2="146.659" gradientUnits="userSpaceOnUse"><stop stop-color="#FF5C00"/><stop offset="1" stop-color="#CD1000"/></linearGradient></defs></svg>