<svg width="140" height="140" fill="none" xmlns="http://www.w3.org/2000/svg"><path d="M17.5 69.999H70v8.75H17.5v-8.75z" fill="#DD2B1C"/><path d="M17.5 69.999H70v8.75H17.5v-8.75z" fill="url(#paint0_linear)"/><path d="M8.75 48.124H52.5v8.75H8.75v-8.75z" fill="#DD2B1C"/><path d="M8.75 48.124H52.5v8.75H8.75v-8.75z" fill="url(#paint1_linear)"/><path d="M130.897 72.651l-13.125-30.625a4.372 4.372 0 00-4.021-2.651h-13.125v-8.75a4.375 4.375 0 00-4.375-4.375h-70V35h65.625v54.933a17.465 17.465 0 00-8.129 10.692H56.255a17.5 17.5 0 100 8.75h27.492a17.413 17.413 0 0033.758 0h9.371a4.375 4.375 0 004.375-4.375V74.375c0-.593-.12-1.18-.354-1.724zM39.376 113.75a8.746 8.746 0 01-8.084-5.402 8.749 8.749 0 0115.36-8.209A8.748 8.748 0 0148.125 105a8.76 8.76 0 01-8.75 8.75zm61.25-65.625h10.237L120.243 70h-19.617V48.125zm0 65.625a8.746 8.746 0 01-8.084-5.402 8.749 8.749 0 0115.359-8.209 8.744 8.744 0 01-1.09 11.046 8.76 8.76 0 01-6.185 2.565zm21.875-13.125h-4.996A17.479 17.479 0 00100.626 87.5v-8.75h21.875v21.875z" fill="#DD2B1C"/><path d="M130.897 72.651l-13.125-30.625a4.372 4.372 0 00-4.021-2.651h-13.125v-8.75a4.375 4.375 0 00-4.375-4.375h-70V35h65.625v54.933a17.465 17.465 0 00-8.129 10.692H56.255a17.5 17.5 0 100 8.75h27.492a17.413 17.413 0 0033.758 0h9.371a4.375 4.375 0 004.375-4.375V74.375c0-.593-.12-1.18-.354-1.724zM39.376 113.75a8.746 8.746 0 01-8.084-5.402 8.749 8.749 0 0115.36-8.209A8.748 8.748 0 0148.125 105a8.76 8.76 0 01-8.75 8.75zm61.25-65.625h10.237L120.243 70h-19.617V48.125zm0 65.625a8.746 8.746 0 01-8.084-5.402 8.749 8.749 0 0115.359-8.209 8.744 8.744 0 01-1.09 11.046 8.76 8.76 0 01-6.185 2.565zm21.875-13.125h-4.996A17.479 17.479 0 00100.626 87.5v-8.75h21.875v21.875z" fill="url(#paint2_linear)"/><defs><linearGradient id="paint0_linear" x1="130.961" y1="33.38" x2="51.234" y2="143.586" gradientUnits="userSpaceOnUse"><stop stop-color="#FF5C00"/><stop offset="1" stop-color="#CD1000"/></linearGradient><linearGradient id="paint1_linear" x1="130.961" y1="33.38" x2="51.234" y2="143.586" gradientUnits="userSpaceOnUse"><stop stop-color="#FF5C00"/><stop offset="1" stop-color="#CD1000"/></linearGradient><linearGradient id="paint2_linear" x1="130.961" y1="33.38" x2="51.234" y2="143.586" gradientUnits="userSpaceOnUse"><stop stop-color="#FF5C00"/><stop offset="1" stop-color="#CD1000"/></linearGradient></defs></svg>