<svg width="140" height="140" fill="none" xmlns="http://www.w3.org/2000/svg"><path fill-rule="evenodd" clip-rule="evenodd" d="M113 27H45v68h68V27zm-68-7a7 7 0 00-7 7v68a7 7 0 007 7h68a7 7 0 007-7V27a7 7 0 00-7-7H45z" fill="#DD2B1C"/><path fill-rule="evenodd" clip-rule="evenodd" d="M113 27H45v68h68V27zm-68-7a7 7 0 00-7 7v68a7 7 0 007 7h68a7 7 0 007-7V27a7 7 0 00-7-7H45z" fill="url(#paint0_linear)"/><path fill-rule="evenodd" clip-rule="evenodd" d="M27.5 34v75a3.5 3.5 0 003.5 3.5h75v7H31c-5.799 0-10.5-4.701-10.5-10.5V34h7z" fill="#DD2B1C"/><path fill-rule="evenodd" clip-rule="evenodd" d="M27.5 34v75a3.5 3.5 0 003.5 3.5h75v7H31c-5.799 0-10.5-4.701-10.5-10.5V34h7z" fill="url(#paint1_linear)"/><path fill-rule="evenodd" clip-rule="evenodd" d="M102 46H56v-7h46v7z" fill="#DD2B1C"/><path fill-rule="evenodd" clip-rule="evenodd" d="M102 46H56v-7h46v7z" fill="url(#paint2_linear)"/><path fill-rule="evenodd" clip-rule="evenodd" d="M102 64H56v-7h46v7z" fill="#DD2B1C"/><path fill-rule="evenodd" clip-rule="evenodd" d="M102 64H56v-7h46v7z" fill="url(#paint3_linear)"/><path fill-rule="evenodd" clip-rule="evenodd" d="M88 83H56v-7h32v7z" fill="#DD2B1C"/><path fill-rule="evenodd" clip-rule="evenodd" d="M88 83H56v-7h32v7z" fill="url(#paint4_linear)"/><defs><linearGradient id="paint0_linear" x1="119.783" y1="26.074" x2="49.62" y2="111.379" gradientUnits="userSpaceOnUse"><stop stop-color="#FF5C00"/><stop offset="1" stop-color="#CD1000"/></linearGradient><linearGradient id="paint1_linear" x1="105.774" y1="40.333" x2="32.616" y2="129.279" gradientUnits="userSpaceOnUse"><stop stop-color="#FF5C00"/><stop offset="1" stop-color="#CD1000"/></linearGradient><linearGradient id="paint2_linear" x1="101.878" y1="39.519" x2="100.374" y2="51.539" gradientUnits="userSpaceOnUse"><stop stop-color="#FF5C00"/><stop offset="1" stop-color="#CD1000"/></linearGradient><linearGradient id="paint3_linear" x1="101.878" y1="57.519" x2="100.374" y2="69.539" gradientUnits="userSpaceOnUse"><stop stop-color="#FF5C00"/><stop offset="1" stop-color="#CD1000"/></linearGradient><linearGradient id="paint4_linear" x1="87.915" y1="76.519" x2="85.788" y2="88.344" gradientUnits="userSpaceOnUse"><stop stop-color="#FF5C00"/><stop offset="1" stop-color="#CD1000"/></linearGradient></defs></svg>