<svg width="140" height="140" fill="none" xmlns="http://www.w3.org/2000/svg"><path d="M128.693 94.791l-27.715-27.715 27.711-27.712a8.748 8.748 0 00.004-12.377l-.004-.008-15.662-15.663a8.756 8.756 0 00-9.537-1.9 8.752 8.752 0 00-2.84 1.896l-.005.004-27.71 27.712-27.717-27.716a8.767 8.767 0 00-12.372 0l-21.534 21.53a8.754 8.754 0 000 12.376L39.024 72.93 8.752 103.21v28.044h28.044l30.275-30.275 27.715 27.724a8.788 8.788 0 0012.381 0l21.525-21.534a8.751 8.751 0 000-12.377zM106.81 17.485l15.706 15.706-27.707 27.712-15.706-15.707 27.707-27.711zM35.003 122.503h-17.5v-15.711l27.694-27.69 16.082 16.092-26.276 27.309zm65.975.017L17.503 39.028l21.534-21.525L55.609 34.07l-9.852 9.857 6.19 6.186 9.848-9.853 18.07 18.069-9.862 9.844 6.195 6.186 9.852-9.853 18.069 18.07-9.852 9.847 6.186 6.191 9.852-9.848 12.207 12.211-21.534 21.542z" fill="#DD2B1C"/><path d="M128.693 94.791l-27.715-27.715 27.711-27.712a8.748 8.748 0 00.004-12.377l-.004-.008-15.662-15.663a8.756 8.756 0 00-9.537-1.9 8.752 8.752 0 00-2.84 1.896l-.005.004-27.71 27.712-27.717-27.716a8.767 8.767 0 00-12.372 0l-21.534 21.53a8.754 8.754 0 000 12.376L39.024 72.93 8.752 103.21v28.044h28.044l30.275-30.275 27.715 27.724a8.788 8.788 0 0012.381 0l21.525-21.534a8.751 8.751 0 000-12.377zM106.81 17.485l15.706 15.706-27.707 27.712-15.706-15.707 27.707-27.711zM35.003 122.503h-17.5v-15.711l27.694-27.69 16.082 16.092-26.276 27.309zm65.975.017L17.503 39.028l21.534-21.525L55.609 34.07l-9.852 9.857 6.19 6.186 9.848-9.853 18.07 18.069-9.862 9.844 6.195 6.186 9.852-9.853 18.069 18.07-9.852 9.847 6.186 6.191 9.852-9.848 12.207 12.211-21.534 21.542z" fill="url(#paint0_linear)"/><defs><linearGradient id="paint0_linear" x1="130.966" y1="17.824" x2="24.503" y2="133.465" gradientUnits="userSpaceOnUse"><stop stop-color="#FF5C00"/><stop offset="1" stop-color="#CD1000"/></linearGradient></defs></svg>