<svg width="140" height="140" fill="none" xmlns="http://www.w3.org/2000/svg"><path fill-rule="evenodd" clip-rule="evenodd" d="M22 27h96v66H22V27zm-7 0a7 7 0 017-7h96a7 7 0 017 7v66a7 7 0 01-7 7H80l10 15v5H50v-5l10-15H22a7 7 0 01-7-7V27z" fill="#DD2B1C"/><path fill-rule="evenodd" clip-rule="evenodd" d="M22 27h96v66H22V27zm-7 0a7 7 0 017-7h96a7 7 0 017 7v66a7 7 0 01-7 7H80l10 15v5H50v-5l10-15H22a7 7 0 01-7-7V27z" fill="url(#paint0_linear)"/><path fill-rule="evenodd" clip-rule="evenodd" d="M81 43h-7v-7h7v7z" fill="#DD2B1C"/><path fill-rule="evenodd" clip-rule="evenodd" d="M81 43h-7v-7h7v7z" fill="url(#paint1_linear)"/><path fill-rule="evenodd" clip-rule="evenodd" d="M111 57H74v-7h37v7z" fill="#DD2B1C"/><path fill-rule="evenodd" clip-rule="evenodd" d="M111 57H74v-7h37v7z" fill="url(#paint2_linear)"/><path fill-rule="evenodd" clip-rule="evenodd" d="M111 70H74v-7h37v7z" fill="#DD2B1C"/><path fill-rule="evenodd" clip-rule="evenodd" d="M111 70H74v-7h37v7z" fill="url(#paint3_linear)"/><path fill-rule="evenodd" clip-rule="evenodd" d="M111 84H74v-7h37v7z" fill="#DD2B1C"/><path fill-rule="evenodd" clip-rule="evenodd" d="M111 84H74v-7h37v7z" fill="url(#paint4_linear)"/><path fill-rule="evenodd" clip-rule="evenodd" d="M58 43H37v34h21V43zm-28-7v48h35V36H30z" fill="#DD2B1C"/><path fill-rule="evenodd" clip-rule="evenodd" d="M58 43H37v34h21V43zm-28-7v48h35V36H30z" fill="url(#paint5_linear)"/><defs><linearGradient id="paint0_linear" x1="124.709" y1="27.407" x2="41.065" y2="139.272" gradientUnits="userSpaceOnUse"><stop stop-color="#FF5C00"/><stop offset="1" stop-color="#CD1000"/></linearGradient><linearGradient id="paint1_linear" x1="80.981" y1="36.519" x2="74.992" y2="43.801" gradientUnits="userSpaceOnUse"><stop stop-color="#FF5C00"/><stop offset="1" stop-color="#CD1000"/></linearGradient><linearGradient id="paint2_linear" x1="110.902" y1="50.519" x2="109.047" y2="62.438" gradientUnits="userSpaceOnUse"><stop stop-color="#FF5C00"/><stop offset="1" stop-color="#CD1000"/></linearGradient><linearGradient id="paint3_linear" x1="110.902" y1="63.519" x2="109.047" y2="75.438" gradientUnits="userSpaceOnUse"><stop stop-color="#FF5C00"/><stop offset="1" stop-color="#CD1000"/></linearGradient><linearGradient id="paint4_linear" x1="110.902" y1="77.519" x2="109.047" y2="89.438" gradientUnits="userSpaceOnUse"><stop stop-color="#FF5C00"/><stop offset="1" stop-color="#CD1000"/></linearGradient><linearGradient id="paint5_linear" x1="64.907" y1="39.556" x2="23.351" y2="76.396" gradientUnits="userSpaceOnUse"><stop stop-color="#FF5C00"/><stop offset="1" stop-color="#CD1000"/></linearGradient></defs></svg>