<svg width="140" height="140" fill="none" xmlns="http://www.w3.org/2000/svg"><path d="M113.75 17.5v105h-87.5v-105h87.5zm0-8.75h-87.5a8.75 8.75 0 00-8.75 8.75v105a8.75 8.75 0 008.75 8.75h87.5a8.749 8.749 0 008.75-8.75v-105a8.75 8.75 0 00-8.75-8.75z" fill="#DD2B1C"/><path d="M113.75 17.5v105h-87.5v-105h87.5zm0-8.75h-87.5a8.75 8.75 0 00-8.75 8.75v105a8.75 8.75 0 008.75 8.75h87.5a8.749 8.749 0 008.75-8.75v-105a8.75 8.75 0 00-8.75-8.75z" fill="url(#paint0_linear)"/><path d="M39.375 100.625h8.75v8.75h-8.75v-8.75z" fill="#DD2B1C"/><path d="M39.375 100.625h8.75v8.75h-8.75v-8.75z" fill="url(#paint1_linear)"/><path d="M91.875 100.625h8.75v8.75h-8.75v-8.75z" fill="#DD2B1C"/><path d="M91.875 100.625h8.75v8.75h-8.75v-8.75z" fill="url(#paint2_linear)"/><path d="M39.375 78.75h8.75v8.75h-8.75v-8.75z" fill="#DD2B1C"/><path d="M39.375 78.75h8.75v8.75h-8.75v-8.75z" fill="url(#paint3_linear)"/><path d="M91.875 78.75h8.75v8.75h-8.75v-8.75z" fill="#DD2B1C"/><path d="M91.875 78.75h8.75v8.75h-8.75v-8.75z" fill="url(#paint4_linear)"/><path d="M39.375 56.875h8.75v8.75h-8.75v-8.75z" fill="#DD2B1C"/><path d="M39.375 56.875h8.75v8.75h-8.75v-8.75z" fill="url(#paint5_linear)"/><path d="M65.625 100.625h8.75v8.75h-8.75v-8.75z" fill="#DD2B1C"/><path d="M65.625 100.625h8.75v8.75h-8.75v-8.75z" fill="url(#paint6_linear)"/><path d="M65.625 78.75h8.75v8.75h-8.75v-8.75z" fill="#DD2B1C"/><path d="M65.625 78.75h8.75v8.75h-8.75v-8.75z" fill="url(#paint7_linear)"/><path d="M65.625 56.875h8.75v8.75h-8.75v-8.75z" fill="#DD2B1C"/><path d="M65.625 56.875h8.75v8.75h-8.75v-8.75z" fill="url(#paint8_linear)"/><path d="M91.875 56.875h8.75v8.75h-8.75v-8.75z" fill="#DD2B1C"/><path d="M91.875 56.875h8.75v8.75h-8.75v-8.75z" fill="url(#paint9_linear)"/><path d="M39.375 30.625h61.25V43.75h-61.25V30.625z" fill="#DD2B1C"/><path d="M39.375 30.625h61.25V43.75h-61.25V30.625z" fill="url(#paint10_linear)"/><defs><linearGradient id="paint0_linear" x1="122.222" y1="17.824" x2="15.489" y2="129.053" gradientUnits="userSpaceOnUse"><stop stop-color="#FF5C00"/><stop offset="1" stop-color="#CD1000"/></linearGradient><linearGradient id="paint1_linear" x1="48.102" y1="101.273" x2="40.615" y2="110.376" gradientUnits="userSpaceOnUse"><stop stop-color="#FF5C00"/><stop offset="1" stop-color="#CD1000"/></linearGradient><linearGradient id="paint2_linear" x1="100.602" y1="101.273" x2="93.115" y2="110.376" gradientUnits="userSpaceOnUse"><stop stop-color="#FF5C00"/><stop offset="1" stop-color="#CD1000"/></linearGradient><linearGradient id="paint3_linear" x1="48.102" y1="79.398" x2="40.615" y2="88.501" gradientUnits="userSpaceOnUse"><stop stop-color="#FF5C00"/><stop offset="1" stop-color="#CD1000"/></linearGradient><linearGradient id="paint4_linear" x1="100.602" y1="79.398" x2="93.115" y2="88.501" gradientUnits="userSpaceOnUse"><stop stop-color="#FF5C00"/><stop offset="1" stop-color="#CD1000"/></linearGradient><linearGradient id="paint5_linear" x1="48.102" y1="57.523" x2="40.615" y2="66.626" gradientUnits="userSpaceOnUse"><stop stop-color="#FF5C00"/><stop offset="1" stop-color="#CD1000"/></linearGradient><linearGradient id="paint6_linear" x1="74.352" y1="101.273" x2="66.865" y2="110.376" gradientUnits="userSpaceOnUse"><stop stop-color="#FF5C00"/><stop offset="1" stop-color="#CD1000"/></linearGradient><linearGradient id="paint7_linear" x1="74.352" y1="79.398" x2="66.865" y2="88.501" gradientUnits="userSpaceOnUse"><stop stop-color="#FF5C00"/><stop offset="1" stop-color="#CD1000"/></linearGradient><linearGradient id="paint8_linear" x1="74.352" y1="57.523" x2="66.865" y2="66.626" gradientUnits="userSpaceOnUse"><stop stop-color="#FF5C00"/><stop offset="1" stop-color="#CD1000"/></linearGradient><linearGradient id="paint9_linear" x1="100.602" y1="57.523" x2="93.115" y2="66.626" gradientUnits="userSpaceOnUse"><stop stop-color="#FF5C00"/><stop offset="1" stop-color="#CD1000"/></linearGradient><linearGradient id="paint10_linear" x1="100.463" y1="31.597" x2="96.55" y2="53.798" gradientUnits="userSpaceOnUse"><stop stop-color="#FF5C00"/><stop offset="1" stop-color="#CD1000"/></linearGradient></defs></svg>