<svg width="101" height="100" fill="none" xmlns="http://www.w3.org/2000/svg"><path d="M7.663 74.74v17.673h17.849l52.642-52.168-17.85-17.672-52.64 52.168zM101 79.973L80.771 100l-24.75-24.505 8.425-8.341 4.76 4.712L80.962 60.18l6.758 6.692-6.949 6.692 5.046 4.712 6.758-6.597L101 79.972zM24.845 44.486L0 20.028 20.229 0l8.377 8.341-11.757 11.687 5.093 4.996 11.709-11.688 6.758 6.692-6.758 6.645 4.76 4.713-13.566 13.1zm67.112-18.049c1.856-1.838 1.856-4.712 0-6.644L80.819 8.953c-1.761-1.837-4.855-1.837-6.711 0l-8.758 8.625L83.2 35.25l8.758-8.813z" fill="#252726"/></svg>