<svg width="40" height="40" fill="none" xmlns="http://www.w3.org/2000/svg"><path stroke="#252726" stroke-width="2" d="M1 1h38v38H1z"/><path fill-rule="evenodd" clip-rule="evenodd" d="M9 9h22v14.612H9V9z" fill="#B20000"/><path fill-rule="evenodd" clip-rule="evenodd" d="M9 23.612h22V31H9v-7.388z" fill="#429F00"/><path fill-rule="evenodd" clip-rule="evenodd" d="M9 9h4.869v21.996H9V9z" fill="#fff"/><path fill-rule="evenodd" clip-rule="evenodd" d="M9.23 9.373h.236v.372H9.23v-.372zm.697 0h.696v.372h-.692l-.004-.372zm.23-.373h.235v.373h-.24L10.158 9zm1.162 0h.23v.373h-.23V9zm.931.373h.692v.372h-.696l.004-.372zM12.477 9h.23v.373h-.23V9zm-2.78.745h.465v.373h-.466v-.373zm.695 0h.466v.373h-.466v-.373zm1.623 0h.466v.373h-.466v-.373zm.697 0h.456v.373h-.452l-.004-.373zm-3.246.373h.46v.372h-.46v-.373zm1.157 0h.466v.372h-.466v-.373zm1.162 0h.461v.372h-.461v-.373zm1.157 0h.466v.372h-.466v-.373zm.466-.745h.23v.372h-.23v-.372zM9.23 10.49h.465v.373H9.23v-.373zm1.623 0h.465v.373h-.465v-.373zm2.323 0h.461v.373h-.46v-.373zm-3.711 1.126h.46v.373h-.46v-.373zm.23.373h.466v.372h-.466v-.372zm.931-.373h.457v.373h-.461l.004-.373zm-.235.373h.462v.372h-.462v-.372zm-.465.372h.696v.364H9.93l-.004-.364zm.23.364h.235v.377h-.24l.005-.377zm1.628-1.117h.461v.377h-.461v-.377zm.23.377h.466v.372h-.466v-.372zm.932-.373h.46v.373h-.465l.005-.373zm-.235.373h.456v.372h-.452l-.004-.372zm-.466.372h.7v.368h-.7v-.368zm.235.368h.23v.377h-.23v-.377zm-1.162-.368h.23v.368h-.23v-.368zm-2.319 0h.23v.368H9v-.368zm4.638 0h.23v.368h-.23v-.368zm-3.48 1.863h.234v.372h-.24l.005-.373zm-.231.372h.696v.372H9.93l-.004-.372zm-.23.372h1.161v.373H9.696v-.373zm2.784-.745h.23v.373h-.23v-.373zm-.234.373h.7v.373h-.7v-.373zm-.23.373h1.157v.372h-1.158v-.372zm.23 1.862h1.162v.377h-1.162v-.377zm-.461-1.485h1.623v.372h-1.623v-.372zm-2.32 0h1.62v.372h-1.62v-.372zm.231 1.862h.696v.377h-.696v-.377zm-.23-.368h1.157v.373H9.466v-.373zm3.246-.75h1.157v.378h-1.153l-.004-.377zm-.231 1.118h.696v.373h-.696v-.373zm-2.554.373h.235v.372h-.235v-.372zm2.785 0h.23v.372h-.23v-.372zM9 16.082h1.162v.377H9v-.377zm2.084.75h.7v.372h-.7v-.372zm.235.372h.23v.373h-.23v-.373zm-.696-1.122h1.623v.377h-1.623v-.377zm.931-5.587h.461v.368h-.465l.004-.368zm-.47.368h.696v.372h-.696v-.372zm-.235.372h.466v.373h-.461l-.005-.373zm.696 0h.47v.373h-.465l-.005-.373zM9 10.863h.466v.372H9v-.372zm.23.372h.466v.373h-.465v-.373zm4.178-.372h.46v.372h-.46v-.372zm-.24.372h.466v.373h-.457l-.009-.373zM9 14.592h.23v.373H9v-.373zm4.638 0h.23v.373h-.23v-.373zm-2.55 2.985h.697v.372h-.7l.004-.372zm-.234.372h.465v.373h-.465v-.373zm.696 0h.465v.373h-.465v-.373zm-.927.373h.466v.372h-.466v-.372zm1.162 0h.461v.372h-.461v-.372zm-1.393.372h.466v.373h-.466v-.373zm1.623 0h.466v.373h-.466v-.373zm-1.858.373h.466v.372h-.466v-.372zm2.089 0h.466v.372h-.466v-.372zm-2.55.372h.696v.373h-.696v-.373zm2.785 0h.696v.373h-.696v-.373zm.461-.372h.466v.372h-.466v-.372zm.235-.373h.461v.373h-.46v-.373zm.23-.372h.462v.372h-.461v-.372zm-3.946.745h.47v.372h-.465l-.005-.372zm-.23-.373h.465v.373h-.465v-.373z" fill="#B20000"/><path fill-rule="evenodd" clip-rule="evenodd" d="M9 18.322h.466v.372H9v-.372zm.931 1.49h.23v.372h-.234l.004-.372zm2.78 0h.231v.372h-.23v-.372zm-1.392-1.118h.23v.373h-.23v-.373zm-.696 1.118h.23v.372h-.23v-.372zm1.392 0h.231v.372h-.23v-.372zm-.696 0h.23v.372h-.23v-.372zm-2.319 0h.23v.372H9v-.372zm4.638 0h.23v.372h-.23v-.372zm-2.319-5.22h.23v.373h-.23v-.373zm-1.157-3.725h.23v.368h-.23v-.368zm2.319 0h.23v.368h-.23v-.368zm-1.397 2.603h.696v.373h-.696v-.373zm-.461.377h.696v.373h-.696v-.373z" fill="#B20000"/><path fill-rule="evenodd" clip-rule="evenodd" d="M10.854 14.22h.235v.372h-.236v-.373zm-.462-.745h.466v.372h-.466v-.372zm.23-.373h.697v.373h-.696v-.373zm.232-.373h.235v.373h-.236v-.373zm.696.373h.696v.373h-.696v-.373zm.235-.373h.23v.373h-.23v-.373zm.23.746h.466v.372h-.466v-.372zm-.465.372h.696v.373h-.696v-.373zm.235.373h.23v.372h-.23v-.373zm.926-.745h.466v.372h-.466v-.372zm.231-.373h.696v.373h-.691l-.005-.373zm.466.373h.46v.372h-.46v-.372z" fill="#B20000"/><path fill-rule="evenodd" clip-rule="evenodd" d="M12.947 13.847h.691v.373h-.691v-.373zm.23.373h.23v.372h-.23v-.373zm0-1.49h.23v.372h-.23v-.373zM9 13.474h.466v.372H9v-.372zm.23-.373h.701v.373h-.7v-.373zm.466.373h.466v.372h-.466v-.372z" fill="#B20000"/><path fill-rule="evenodd" clip-rule="evenodd" d="M9.23 13.847h.701v.373h-.7v-.373zm.236.373h.23v.372h-.23v-.373zm0-1.49h.23v.372h-.23v-.373zm-.235 2.98h.93v.372h-.93v-.373zm1.161 0h.932v.372h-.932v-.373zm1.158 0h.931v.372h-.931v-.373zm1.162 0h.93v.372h-.93v-.373zm-1.858.744h1.161v.377h-1.161v-.377zm-1.623 0h1.161v.377H9.231v-.377zm3.25 0h1.157v.377h-1.157v-.377zm1.157 1.495h.23v.372h-.23v-.372zm-4.638 0h.23v.372H9v-.372zm.23 12.678h.236v-.376H9.23v.377zm.697 0h.696v-.376h-.692l-.004.377zm.23.369h.235v-.368h-.24l.005.368zm1.162 0h.23v-.368h-.23v.368zm.931-.368h.692v-.373h-.696l.004.373zm.231.368h.23v-.368h-.23v.368zm-2.785-.745h.466v-.373h-.466v.373zm.696 0h.466v-.373h-.466v.373zm1.623 0h.466v-.373h-.466v.373zm.697 0h.456v-.373h-.452l-.004.373zm-2.085-.373h.457v-.372h-.461l.004.372zm1.153 0h.466v-.372h-.461l-.005.372zm1.162 0h.466v-.372h-.466v.372zm.466.75h.23v-.377h-.23v.377zM9.23 29.506h.465v-.373H9.23v.373zm1.623 0h.465v-.373h-.465v.373zm2.323 0h.461v-.373h-.46v.373zm-3.711-1.118h.46v-.373h-.46v.373zm.23-.373h.466v-.372h-.466v.372zm.931.373h.457v-.373h-.461l.004.373zm-.235-.373h.462v-.372h-.462v.372zm-.465-.372h.696v-.373H9.93l-.004.373zm.23-.373h.235v-.372h-.24l.005.372zm1.628 1.118h.461v-.373h-.461v.373zm.23-.373h.466v-.372h-.466v.372zm.932.373h.46v-.373h-.465l.005.373zm-.235-.373h.456v-.372h-.452l-.004.372zm-.466-.372h.7v-.373h-.7v.373zm.235-.373h.23v-.372h-.23v.372zm-1.162.373h.23v-.373h-.23v.373zm-2.319 0h.23v-.373H9v.373zm4.638 0h.23v-.373h-.23v.373zm-3.476-1.863h.23v-.377h-.23v.378z" fill="#B20000"/><path fill-rule="evenodd" clip-rule="evenodd" d="M9.931 25.408h.692v-.377h-.692v.377zm-.235-.377h1.162v-.372H9.696v.372zm2.785.745h.23v-.368h-.23v.368zm-.235-.368h.7v-.377h-.7v.377zm-.23-.377h1.157v-.372h-1.158v.372zm.23-1.862h1.162v-.373h-1.162v.373zm-.461 1.49h1.623v-.373h-1.623v.372zm-2.32 0h1.62v-.373h-1.62v.372zm.231-1.863h.696v-.372h-.696v.372zm-.23.373h1.157v-.373H9.466v.373zm3.246.744h1.157v-.368h-1.153l-.004.368zm-.231-1.117h.696v-.372h-.696v.372zM9 23.913h1.162v-.368H9v.368zm2.084-.744h.7v-.373h-.7v.373zm.235-.373h.23v-.372h-.23v.372zm-.696 1.117h1.623v-.368h-1.623v.368zm.931 5.593h.461v-.373h-.465l.004.373zm-.47-.373h.696v-.372h-.696v.372zm-.235-.372h.466v-.373h-.461l-.005.372zm.696 0h.47v-.373h-.465l-.005.372zM9 29.133h.466v-.372H9v.372zm.23-.372h.466v-.373h-.465v.372zm4.178.372h.46v-.372h-.46v.372zm-.235-.372h.465v-.373h-.46l-.005.372zM9 25.407h.23v-.373H9v.373zm4.638 0h.23v-.373h-.23v.373zm-2.784-3.353h.465v-.372h-.465v.372zm.696 0h.465v-.372h-.465v.372zm-.927-.372h.466v-.373h-.466v.373zm1.162 0h.461v-.373h-.461v.373zm-1.393-.377h.462v-.377h-.462v.377zm1.623 0h.466v-.377h-.466v.377zm-1.858-.377h.466v-.368h-.466v.368zm2.089 0h.466v-.368h-.466v.368zm-2.55-.368h.696v-.377h-.696v.377zm2.785 0h.696v-.377h-.696v.377zm.461.372h.466v-.377h-.466v.377zm.235.369h.461v-.369h-.46v.369zm.23.376h.462v-.372h-.461v.372zm-3.946-.745h.47v-.377h-.465l-.005.377zm-.23.369h.465v-.369h-.465v.369zm-.231.38h.466v-.372H9v.373zm.931-1.494h.23v-.372h-.234l.004.372zm1.388 1.122h.23v-.381h-.23v.381zm0 4.102h.23v-.377h-.23v.377zm-1.157 3.725h.23v-.372h-.23v.372zm2.319 0h.23v-.372h-.23v.372zm-1.397-2.611h.696v-.373h-.696v.373zm-.466-.373h.697v-.373h-.692l-.005.373zm.231-.377h.235v-.368h-.235v.368zm-.461.75h.461v-.373h-.457l-.004.373zm.235.372h.696v-.372h-.696v.372zm.23.372h.236v-.372h-.235v.372zm.697-.372h.696v-.372h-.696v.372zm.235.372h.23v-.372h-.23v.372zm.23-.744h.466v-.373h-.466v.373zm-.465-.373h.696v-.373h-.696v.373zm.235-.377h.23v-.368h-.23v.368zm.927.75h.456v-.373h-.452l-.004.373zm.23.372h.696v-.372h-.691l-.005.372zm.466-.372h.46v-.373h-.46v.373zm-.466-.373h.696v-.373h-.691l-.005.373zm.235-.377h.23v-.368h-.23v.368zm0 1.494h.23v-.372h-.23v.372zM9 26.526h.466v-.373H9v.373z" fill="#B20000"/><path fill-rule="evenodd" clip-rule="evenodd" d="M9.23 26.898h.701v-.373h-.7v.373zm.466-.373h.466v-.372h-.466v.372zm-.465-.372h.7v-.373h-.7v.373zm.235-.377h.23v-.368h-.23v.368zm0 1.494h.23v-.372h-.23v.372zm-.235-2.984h.93v-.373h-.93v.373zm1.161 0h.932v-.373h-.932v.373zm1.158 0h.931v-.373h-.931v.373zm1.162 0h.93v-.373h-.93v.373zm-1.858-.74h1.161v-.373h-1.161v.372zm-1.623 0h1.161v-.373H9.231v.372zm3.25 0h1.157v-.373h-1.157v.372zm1.157-1.49h.23v-.373h-.23v.372zM9 22.05h.23v-.373H9v.373zm2.084-1.863h.235v.369h-.23l-.005-.369zm.466 0h.235v.369h-.235v-.369zm0-.749h.235v.372h-.235v-.372zm-.461 0h.23v.372h-.23v-.372zM9.466 29.506h.46v.372h-.46v-.372zm3.246-7.083h.23v-.372h-.23v.372zm-2.785 0h.23v-.372h-.226l-.004.372zm1.162-.372h.696v.372h-.7l.004-.372z" fill="#B20000"/></svg>