<svg width="40" height="40" fill="none" xmlns="http://www.w3.org/2000/svg"><path stroke="#252726" stroke-width="2" d="M1 1h38v38H1z"/><path d="M9 9h22v22H9V9z" fill="#DE2910"/><path d="M17.8 13.51l-5.61 3.63 2.31-5.94 1.98 5.94-5.28-3.63h6.6zm1.365-3.09l2 .98-2.093.359 1.356-1.585-.13 2.13-1.133-1.884zm2.548 1.94l1.461 1.681-2.068-.483 1.867-.932-.95 1.913-.31-2.179zm.46 3.194l.648 2.132-1.692-1.286 2.086-.09-1.649 1.36.607-2.116zm-1.743 2.282l-.225 2.214-1.063-1.838 1.957.723-2.044.617 1.375-1.716z" fill="#FFDE00"/></svg>