<svg width="40" height="40" fill="none" xmlns="http://www.w3.org/2000/svg"><path stroke="#252726" stroke-width="2" d="M1 1h38v38H1z"/><mask id="a" maskUnits="userSpaceOnUse" x="9" y="9" width="22" height="22"><path fill="#C4C4C4" d="M9 9h22v22H9z"/></mask><g mask="url(#a)"><path d="M-2 9h44v22H-2V9z" fill="#012169"/><path d="M-2 9v2.46L37.08 31H42v-2.46L2.92 9.004H-2V9zm44 0v2.46L2.92 31H-2v-2.46L37.08 9H42z" fill="#fff"/><path d="M16.335 9v22h7.33V9h-7.33zM-2 16.335v7.33h44v-7.33H-2z" fill="#fff"/><path d="M-2 17.8v4.4h44v-4.4H-2zM17.8 9v22h4.4V9h-4.4zM-2 31l14.665-7.335h3.287L1.278 31H-2zm0-22l14.665 7.335H9.387L-2 10.64V9zm26.052 7.335L38.722 9H42l-14.665 7.335h-3.287.004zM42.004 31L27.33 23.665h3.278L42 29.36V31h.004z" fill="#C8102E"/></g></svg>