<svg width="40" height="40" fill="none" xmlns="http://www.w3.org/2000/svg"><path stroke="#252726" stroke-width="2" d="M1 1h38v38H1z"/><mask id="a" maskUnits="userSpaceOnUse" x="9" y="9" width="22" height="22"><path fill="#C4C4C4" d="M9 9h22v22H9z"/></mask><g mask="url(#a)" fill-rule="evenodd" clip-rule="evenodd"><path d="M35.667 30.986H4.29v-22h31.376v22z" fill="#fff"/><path d="M20.254 20.003a4.834 4.834 0 11-9.669 0 4.834 4.834 0 019.669 0z" fill="#fff"/><path d="M26.317 20.287a6.364 6.364 0 01-.427 2.464c-.304.784-.76 1.5-1.342 2.103a6.24 6.24 0 01-2.045 1.41 6.189 6.189 0 01-4.854 0 6.24 6.24 0 01-2.046-1.41 6.315 6.315 0 01-1.341-2.103 6.368 6.368 0 01-.428-2.464 6.368 6.368 0 01.428-2.464c.303-.785.76-1.5 1.341-2.103a6.24 6.24 0 012.046-1.41 6.189 6.189 0 014.854 0 6.24 6.24 0 012.045 1.41 6.315 6.315 0 011.342 2.103c.303.784.449 1.622.427 2.464z" fill="#C70000"/><path d="M7.307 14.435L10.9 10.28l.855.735-3.597 4.159-.85-.74zm1.178 1.018l3.592-4.155.855.73-3.597 4.164-.85-.739z" fill="#000"/><path d="M7.307 14.435L10.9 10.28l.855.735-3.597 4.159-.85-.74z" fill="#000"/><path d="M7.307 14.435L10.9 10.28l.855.735-3.597 4.159-.85-.74zm2.38 2.062l3.593-4.163.855.739-3.596 4.16-.851-.736z" fill="#000"/><path d="M7.307 14.435L10.9 10.28l.855.735-3.597 4.159-.85-.74z" fill="#000"/><path d="M7.307 14.435L10.9 10.28l.855.735-3.597 4.159-.85-.74zm21.863-4.16l3.566 4.185-.86.731-3.566-4.185.86-.73zm-2.394 2.041l3.567 4.186-.86.73-3.566-4.185.86-.73z" fill="#000"/><path d="M27.374 14.727l3.369-2.914.631.73-3.61 3.24-.399-1.056h.009z" fill="#fff"/><path d="M31.525 24.988l-3.455 4.116-.846-.704 3.454-4.117.847.705zm-3.54-13.703l3.566 4.185-.855.73-3.563-4.189.851-.726zm4.713 14.678l-3.46 4.117-.85-.705 3.459-4.116.85.704zm-2.368-1.968l-3.454 4.117-.847-.705 3.455-4.116.846.704z" fill="#000"/><path d="M13.925 19.174c.197 1.59.485 3.36 2.93 3.54.915.056 2.698-.214 3.309-2.715.807-2.398 3.222-3.085 4.868-1.787.941.61 1.199 1.576 1.259 2.307-.073 2.32-1.414 4.34-3.128 5.242-1.977 1.173-4.71 1.199-7.103-.58-1.078-1.01-2.587-2.879-2.135-6.007z" fill="#3D5897"/><path d="M28.165 24.928l3.377 2.904-.628.73-3.742-3.084.988-.55h.005z" fill="#fff"/><path d="M9.348 24.352l3.567 4.18-.86.731-3.566-4.18.86-.73z" fill="#000"/><path d="M8.734 27.794l3.377-2.918.632.73-3.61 3.245-.399-1.062v.005z" fill="#fff"/><path d="M10.534 23.342l3.567 4.181-.86.73-3.566-4.18.86-.73zm-2.393 2.041l3.566 4.181-.859.73-3.566-4.18.86-.73z" fill="#000"/></g></svg>