<svg width="40" height="40" fill="none" xmlns="http://www.w3.org/2000/svg"><path stroke="#252726" stroke-width="2" d="M1 1h38v38H1z"/><path fill-rule="evenodd" clip-rule="evenodd" d="M9 9h7.335v22H9V9z" fill="#00319C"/><path fill-rule="evenodd" clip-rule="evenodd" d="M16.335 9h7.33v22h-7.33V9z" fill="#FFDE00"/><path fill-rule="evenodd" clip-rule="evenodd" d="M23.665 9H31v22h-7.335V9z" fill="#DE2110"/><path fill-rule="evenodd" clip-rule="evenodd" d="M21.446 22.816l.847 1.22c.048.07.094.137.024.181-.072.046-.05.225-.002.294.095.136.213.16.283.116l.642-.406c.07-.045.093-.158-.002-.294-.053-.069-.21-.16-.28-.115-.073.046-.12-.021-.166-.088l-.85-1.225" fill="#FF1900"/><path d="M21.446 22.816l.847 1.22c.048.07.094.137.024.181-.072.046-.05.225-.002.294.095.136.213.16.283.116l.642-.406c.07-.045.093-.158-.002-.294-.053-.069-.21-.16-.28-.115-.073.046-.12-.021-.166-.088l-.85-1.225" stroke="#000" stroke-width=".548"/><path fill-rule="evenodd" clip-rule="evenodd" d="M21.774 21.952c.378.429.51.921.295 1.095-.216.173-.701-.035-1.079-.465-.378-.43-.508-.923-.292-1.096.215-.173.699.033 1.078.464l-.002.002z" fill="#A77B3B" stroke="#000" stroke-width="1.698"/><path fill-rule="evenodd" clip-rule="evenodd" d="M18.008 22.315l-.747 1.28c-.043.071-.084.142-.157.103-.076-.04-.232.06-.274.133-.083.142-.052.254.022.293l.672.359c.074.039.19.006.273-.137.04-.076.05-.252-.023-.29-.076-.041-.035-.111.007-.182l.75-1.283" fill="#FF1900"/><path d="M18.008 22.315l-.747 1.28c-.043.071-.084.142-.157.103-.076-.04-.232.06-.274.133-.083.142-.052.254.022.293l.672.359c.074.039.19.006.273-.137.04-.076.05-.252-.023-.29-.076-.041-.035-.111.007-.182l.75-1.283" stroke="#000" stroke-width=".548"/><path fill-rule="evenodd" clip-rule="evenodd" d="M20.422 21.426h-.68c-.025.023-.217 1.242-.427 1.71-.255.571-1.023 1.075-1.023 1.075s.458.138.597.23c.034-.01.766-.164.852-1.058.085.894-.512 1.301-.512 1.301s.854.244.854.817c0-.57.852-.817.852-.817s-.428-.407-.513-1.304c.169.897.819 1.051.855 1.058.137-.09.594-.23.594-.23s-.765-.499-1.02-1.071c-.21-.467-.405-1.69-.426-1.711h-.003z" fill="#A77B3B" stroke="#000" stroke-width="1.697"/><path fill-rule="evenodd" clip-rule="evenodd" d="M17.521 17.35l1.28.406a.934.934 0 00.587-.254.857.857 0 00.266-.56c.014-.906-.342-1.223-.426-1.223l.168-.161-.253-.249s.087-.423.94-.407c.851.016.851.407.851.814 0 .41-.426.41-.426 1.224a.86.86 0 00.267.56c.157.15.366.24.587.254l1.278-.407v4.08h-5.119v-4.078z" fill="#A77B3B" stroke="#000" stroke-width="1.697"/><path d="M19.482 17.511l.085.245.086-.245.085.245.17-.245.084.258.087-.258.126.258.13-.258.085.245.085-.245" stroke="#000" stroke-width=".136"/><path d="M20.422 16.615l.084.897m-.681-.897l-.171.897.17-.897zm.084 0v.897-.897zm.17 0v.897-.897zm.172 0l.084.897-.084-.897z" stroke="#000" stroke-width=".164"/><path fill-rule="evenodd" clip-rule="evenodd" d="M16.67 14.904c-.852.407-.852 1.224-.852 1.63.029.37 0 8.148 0 8.148s.055-.46.426-.814l.423-.407.426-.407c.313-.271.426-.816.426-1.223v-5.703s0-.41-.852-1.224h.002z" fill="#A77B3B" stroke="#000" stroke-width="1.697"/><path d="M17.521 16.536c-.01 0-.425-.407-.425-.407l-.426.407-.426-.407-.426.407m1.703.404c-.01 0-.425.408-.425.408l-.426-.407-.426.407-.426-.407m1.703 1.219c-.01 0-.425-.407-.425-.407l-.426.407-.426-.407-.426.407" stroke="#000" stroke-width="1.697"/><path d="M17.09 16.129l.006 6.928" stroke="#000" stroke-width="2.338"/><path d="M16.67 16.538l.004 6.911" stroke="#000" stroke-width="2.215"/><path d="M16.244 16.129l.005 7.742" stroke="#000" stroke-width="2.344"/><path fill-rule="evenodd" clip-rule="evenodd" d="M23.494 14.904c.852.407.852 1.224.852 1.63-.03.37 0 8.148 0 8.148s-.056-.46-.426-.814l-.424-.407-.426-.407c-.313-.271-.426-.816-.426-1.223v-5.703s0-.41.852-1.224h-.002z" fill="#A77B3B" stroke="#000" stroke-width="1.697"/><path d="M22.642 16.536c.01 0 .426-.407.426-.407l.426.407.426-.407.426.407m-1.704.404c.01 0 .426.408.426.408l.426-.407.426.407.426-.407m-1.704 1.219c.01 0 .426-.407.426-.407l.426.407.426-.407.426.407" stroke="#000" stroke-width="1.697"/><path d="M23.072 16.129l-.004 6.928" stroke="#000" stroke-width="2.338"/><path d="M23.494 16.538l-.005 6.911" stroke="#000" stroke-width="2.215"/><path d="M23.919 16.129l-.005 7.742" stroke="#000" stroke-width="2.344"/><path fill-rule="evenodd" clip-rule="evenodd" d="M18.961 22.202c-.226.518-.623.856-.883.752-.26-.103-.29-.61-.063-1.128.226-.518.625-.855.885-.752.26.104.29.61.063 1.13l-.002-.002z" fill="#A77B3B" stroke="#000" stroke-width="1.698"/><path fill-rule="evenodd" clip-rule="evenodd" d="M17.525 17.757h5.113v2.445h-5.113v-2.445z" fill="red"/><path fill-rule="evenodd" clip-rule="evenodd" d="M17.525 20.202h5.113v1.216c0 .817-1.276.817-2.557 1.633-1.28-.816-2.556-.816-2.556-1.633v-1.22.004z" fill="#564DFF"/><path d="M17.521 17.756h5.117v3.67c0 .814-1.278.814-2.558 1.63-1.278-.816-2.558-.816-2.558-1.632v-3.668z" stroke="#FF0" stroke-width="1.369"/><path fill-rule="evenodd" clip-rule="evenodd" d="M19.144 17.922s-.852.6-.852 1.172c0 .574.894.766.894.766s-.298 0-.298.765c0 .383.894.192.894.383s-.011.653 0 .957c0 .19-.596 0-.596.19 0 .096.448.574.896.574s.895-.478.895-.573c0-.191-.597 0-.597-.191v-.957c0-.191.895 0 .895-.383 0-.765-.298-.765-.298-.765s.896-.191.896-.765c0-.575-.854-1.173-.854-1.173s.48.79.48 1.172c0 .192-.224.575-.82.575 0 0-.152-.192-.299 0 0 0-.171-.192-.298 0-.044.065-.121-.192-.3 0-.074.05-.134-.192-.298 0-.298 0-.894-.192-.894-.575 0-.382.554-1.172.554-1.172v0z" fill="#FF0" stroke="#000" stroke-width=".942"/><path fill-rule="evenodd" clip-rule="evenodd" d="M19.16 21.346c-.061.039.077.662.117.689.061.038.42.038.479 0 .042-.027 0-.613-.06-.65-.06-.04-.494-.065-.538-.04h.002zm1.844 0c.06.039-.078.662-.118.689-.06.038-.42.038-.479 0-.042-.027 0-.613.06-.65.06-.04.495-.065.539-.04h-.002z" fill="#FF0" stroke="#000" stroke-width=".942"/><path fill-rule="evenodd" clip-rule="evenodd" d="M19.774 21.117c0 .057-.033.112-.091.152a.389.389 0 01-.22.063.389.389 0 01-.218-.063c-.058-.04-.09-.095-.09-.152 0-.057.032-.112.09-.153a.39.39 0 01.219-.063.39.39 0 01.219.063c.058.04.09.096.09.153v0zm1.233 0c0 .057-.033.112-.09.152a.389.389 0 01-.22.063.389.389 0 01-.22-.063c-.057-.04-.09-.095-.09-.152 0-.057.033-.112.09-.152a.389.389 0 01.22-.064.39.39 0 01.22.064c.057.04.09.095.09.152v0z" fill="#FF0" stroke="#000" stroke-width="1.127"/><path fill-rule="evenodd" clip-rule="evenodd" d="M20.619 22.363c0 .052-.07.095-.15.095-.082 0-.147-.043-.147-.095 0-.052.065-.094.146-.094.082 0 .15.043.15.094zm-.774 0c0 .052-.069.095-.15.095-.082 0-.15-.043-.15-.095 0-.052.068-.094.15-.094.081 0 .146.043.146.094h.004z" fill="#000"/><path fill-rule="evenodd" clip-rule="evenodd" d="M20.081 19.307l-.183-.231-.3.038.042-.287-.242-.173.242-.175-.042-.287.3.04.183-.231.184.231.298-.04-.04.287.24.175-.24.175.04.285-.3-.038-.182.23z" fill="#FF0" stroke="#000" stroke-width=".534"/><path fill-rule="evenodd" clip-rule="evenodd" d="M21.357 20.2l.513.247.513-.246-.513-.244-.51.244h-.003zm-3.665 0l.513.247.513-.246-.513-.244-.51.244h-.003z" fill="#FF0" stroke="#000" stroke-width=".547"/><path fill-rule="evenodd" clip-rule="evenodd" d="M22.155 21.66c-.157-.099-.422-.05-.57.032-.148.081-.296.163-.316.457-.17-.283-.036-.545.19-.668a.57.57 0 01.384-.036c.128.034.24.111.313.218l-.001-.002z" fill="#FF0" stroke="#000" stroke-width=".548"/><path fill-rule="evenodd" clip-rule="evenodd" d="M18.634 21.179a.159.159 0 01-.05.114.174.174 0 01-.12.048.174.174 0 01-.12-.048.159.159 0 01-.05-.114.16.16 0 01.05-.115.174.174 0 01.24 0c.032.03.05.072.05.115v0zm-.172.571a.158.158 0 01-.05.115.174.174 0 01-.24 0 .159.159 0 01-.05-.115c0-.043.018-.084.05-.114a.174.174 0 01.24 0c.032.03.05.072.05.114v0zm-.086-.326a.159.159 0 01-.05.114.174.174 0 01-.24 0 .159.159 0 01-.05-.114.16.16 0 01.05-.115.174.174 0 01.24 0c.032.03.05.072.05.115v0z" fill="#FF0" stroke="#000" stroke-width=".547"/><path fill-rule="evenodd" clip-rule="evenodd" d="M18.801 21.75a.159.159 0 01-.05.115.174.174 0 01-.24 0 .158.158 0 010-.23.174.174 0 01.24 0 .16.16 0 01.05.115v0zm.086-.326a.158.158 0 01-.05.114.174.174 0 01-.24 0 .159.159 0 01-.05-.114.16.16 0 01.05-.115.174.174 0 01.24 0c.032.03.05.072.05.115v0z" fill="#FF0" stroke="#000" stroke-width=".547"/><path fill-rule="evenodd" clip-rule="evenodd" d="M18.634 21.505a.159.159 0 01-.05.115.174.174 0 01-.24 0 .159.159 0 01-.05-.115c0-.043.018-.084.05-.114a.174.174 0 01.12-.048c.045 0 .088.017.12.048.032.03.05.071.05.114v0z" fill="#FF0" stroke="#000" stroke-width=".547"/><path fill-rule="evenodd" clip-rule="evenodd" d="M19.256 15.832c-.43 0-.485.065-.678.129 0-.185.477-.404.906-.404 0 .138-.111.27-.228.27v.005z" fill="#DA4500"/><path fill-rule="evenodd" clip-rule="evenodd" d="M19.914 15.394c0 .09-.077.163-.172.163a.168.168 0 01-.172-.163.17.17 0 01.172-.164c.095 0 .172.073.172.164z" fill="#CAC9C7"/><path fill-rule="evenodd" clip-rule="evenodd" d="M18.118 14.824v.244h.426v1.22h.258v-1.22h.426v-.244h-.426v-.326h-.26v.326h-.426.002z" fill="#FF0" stroke="#000" stroke-width=".547"/><path fill-rule="evenodd" clip-rule="evenodd" d="M19.484 15.557a2.75 2.75 0 00-1.022.138c0-.254.292-.546.795-.546.116 0 .227.27.227.408z" fill="#DA4500"/><path fill-rule="evenodd" clip-rule="evenodd" d="M15.05 19.882c-.122-.264-.12-.349.1-.046l2.63 4.986-.081.023-2.647-4.962h-.001z" fill="#008500" stroke="#000" stroke-width=".268"/><path fill-rule="evenodd" clip-rule="evenodd" d="M16.833 23.163c.03-.37-.644-.77-.674-.744-.026.026.043.24.172.352-.25-.124-.508-.201-.516-.146-.017.073.387.25.421.318 0 .048-.3.043-.292.09.004.052.846.473.89.13zm-.674-1.075c.026-.37-.65-.773-.68-.743-.025.026.044.24.173.352-.245-.129-.503-.206-.512-.15-.017.073.387.25.417.318.004.051-.296.043-.288.094.005.048.847.473.89.13zm-.516-.98c.026-.369-.653-.768-.679-.743-.026.026.043.24.172.353-.25-.13-.507-.202-.511-.146-.022.073.386.249.416.318.005.047-.296.042-.292.09.009.047.847.472.89.129h.004zm-.516-1.056c.03-.37-.644-.774-.674-.744-.026.026.043.24.172.353-.25-.13-.507-.207-.512-.15-.021.072.383.248.417.317.005.052-.296.043-.292.095.004.043.847.472.89.129z" fill="#008F00"/><path fill-rule="evenodd" clip-rule="evenodd" d="M15.304 20c.33-.198.266-.954.227-.958-.038-.009-.18.172-.197.34-.043-.267-.13-.512-.172-.482-.078.03.013.443-.026.511-.039.03-.215-.202-.25-.172-.038.035.104.933.418.761zm.472.932c.383-.085.585-.816.555-.833-.035-.017-.232.107-.305.258.055-.262.055-.52 0-.512-.078.005-.142.421-.198.473-.047.021-.13-.258-.176-.236-.048.017-.228.91.129.85h-.005zm.572.95c.344-.172.352-.928.313-.937-.038-.008-.193.16-.227.322-.018-.266-.078-.515-.13-.494-.076.022-.03.443-.072.507-.043.026-.19-.223-.232-.193-.043.03.017.941.343.795h.005zm.61 1.246c.36-.137.451-.894.412-.902-.034-.017-.21.133-.257.292.012-.267-.026-.52-.078-.503-.081.017-.073.438-.124.499-.043.025-.168-.237-.21-.215-.044.03-.087.936.257.825v.004z" fill="#008F00"/><path fill-rule="evenodd" clip-rule="evenodd" d="M17.755 24.419c-.092.157-.381.17-.65.027-.27-.143-.409-.386-.317-.543.091-.156.383-.17.65-.027.267.142.408.386.317.543z" fill="#FF1900" stroke="#000" stroke-width=".548"/><path fill-rule="evenodd" clip-rule="evenodd" d="M24.698 19.173l.045-.117.122.038.045-.117.122.039-.045.115.126.04-.046.118-.125-.04-.113.292-.122-.038.113-.292-.122-.038v0zm-.262 1.029l.122.038-1.311 3.383-.122-.038 1.31-3.383z" fill="#FF0" stroke="#000" stroke-width=".251"/><path fill-rule="evenodd" clip-rule="evenodd" d="M23.084 23.507l.248.078-.362.933-.247-.078.361-.933zm1.455-3.926l.371.117c.246.077-.311.622-.311.622l-.246-.078s-.061-.74.186-.661v0zm.341.008c-.019.049-.088.071-.156.05-.068-.021-.108-.078-.09-.126.018-.048.088-.072.156-.05.068.02.109.078.09.127v-.002z" fill="#FF0" stroke="#000" stroke-width=".251"/><path fill-rule="evenodd" clip-rule="evenodd" d="M23.286 23.996c.104.15-.016.402-.273.564-.256.163-.546.17-.65.02-.103-.15.018-.403.273-.564.255-.162.547-.17.65-.02z" fill="#FF1900" stroke="#000" stroke-width=".548"/></svg>