<svg width="40" height="40" fill="none" xmlns="http://www.w3.org/2000/svg"><path stroke="#252726" stroke-width="2" d="M1 1h38v38H1z"/><path d="M17.803 9H31v22H17.798l.005-22z" fill="red"/><path d="M9.004 9h8.799v22H9l.004-22z" fill="#060"/><path fill-rule="evenodd" clip-rule="evenodd" d="M21.626 23.034c-1.478-.043-8.248-4.271-8.291-4.946l.37-.623c.67.975 7.595 5.087 8.273 4.941l-.352.628z" fill="#FF0" stroke="#000" stroke-width=".7" stroke-linecap="round" stroke-linejoin="round"/><path fill-rule="evenodd" clip-rule="evenodd" d="M13.627 17.38c-.134.356 1.765 1.529 4.05 2.921 2.286 1.388 4.254 2.247 4.404 2.127l.065-.125c-.026.043-.095.056-.198.026-.619-.18-2.23-.92-4.223-2.127-1.993-1.207-3.729-2.324-3.995-2.797a.288.288 0 01-.03-.142h-.009l-.056.099-.008.017v0zm8.033 5.671c-.026.047-.073.047-.159.043-.554-.064-2.234-.88-4.21-2.067-2.311-1.383-4.219-2.642-4.008-2.969l.056-.103.008.004c-.184.559 3.764 2.815 3.996 2.96 2.281 1.419 4.21 2.244 4.382 2.029l-.065.103v0z" fill="#FF0" stroke="#000" stroke-width=".7" stroke-linecap="round" stroke-linejoin="round"/><path fill-rule="evenodd" clip-rule="evenodd" d="M17.811 18.496c1.474-.012 3.3-.202 4.348-.618l-.224-.37c-.623.344-2.453.572-4.137.602-1.993-.017-3.398-.202-4.102-.675l-.215.391c1.297.546 2.62.666 4.33.67z" fill="#FF0" stroke="#000" stroke-width=".7" stroke-linecap="round" stroke-linejoin="round"/><path fill-rule="evenodd" clip-rule="evenodd" d="M22.223 17.886c-.038.056-.721.292-1.731.464-.89.134-1.79.2-2.69.198-.861.004-1.723-.05-2.577-.163-1.053-.168-1.602-.4-1.804-.482l.051-.098a7.989 7.989 0 001.774.472c.848.111 1.702.164 2.557.16.893 0 1.784-.066 2.668-.199 1.03-.167 1.598-.382 1.675-.48l.077.128zm-.202-.378c-.111.086-.67.288-1.65.443a17.9 17.9 0 01-2.555.18 17.192 17.192 0 01-2.466-.159c-1.001-.129-1.53-.365-1.719-.434l.056-.099c.146.078.662.284 1.676.43.813.105 1.632.156 2.453.15.848.002 1.695-.059 2.534-.18.988-.138 1.521-.387 1.603-.451l.068.12zm-9.064 2.767c.91.49 2.925.74 4.837.756 1.74 0 4.008-.27 4.855-.721l-.026-.49c-.262.416-2.69.816-4.846.799-2.157-.017-4.159-.352-4.825-.782v.438" fill="#FF0"/><path d="M12.957 20.275c.91.49 2.925.74 4.837.756 1.74 0 4.008-.27 4.855-.721l-.026-.49c-.262.416-2.69.816-4.846.799-2.157-.017-4.159-.352-4.825-.782v.438m9.271-2.389c-.038.056-.721.292-1.731.464-.89.134-1.79.2-2.69.198-.861.004-1.723-.05-2.577-.163-1.053-.168-1.602-.4-1.804-.482l.051-.098a7.989 7.989 0 001.774.472c.848.111 1.702.164 2.557.16.893 0 1.784-.066 2.668-.199 1.03-.167 1.598-.382 1.675-.48l.077.128zm-.202-.378c-.111.086-.67.288-1.65.443a17.9 17.9 0 01-2.555.18 17.192 17.192 0 01-2.466-.159c-1.001-.129-1.53-.365-1.719-.434l.056-.099c.146.078.662.284 1.676.43.813.105 1.632.156 2.453.15.848.002 1.695-.059 2.534-.18.988-.138 1.521-.387 1.603-.451l.068.12v0z" stroke="#000" stroke-width=".7" stroke-linecap="round" stroke-linejoin="round"/><path fill-rule="evenodd" clip-rule="evenodd" d="M22.696 20.206v.117c-.13.154-.928.386-1.93.545-.99.144-1.992.213-2.993.207a18.8 18.8 0 01-2.845-.198 7.08 7.08 0 01-2.032-.546v-.137c.447.296 1.646.511 2.05.575.721.112 1.654.194 2.827.194a19.79 19.79 0 002.977-.202c.721-.103 1.744-.374 1.946-.555zm0-.416v.12c-.13.15-.928.383-1.93.541-.99.145-1.992.213-2.993.207-1.178 0-2.114-.086-2.84-.194a7.092 7.092 0 01-2.037-.55v-.137c.447.296 1.646.515 2.05.576.726.111 1.658.197 2.827.197 1.233 0 2.22-.086 2.977-.206.721-.103 1.744-.374 1.946-.554zm-4.906 3.158c-2.088-.013-3.88-.567-4.258-.662l.275.43c.666.284 2.415.705 4.004.657 1.59-.047 2.977-.172 3.953-.644l.283-.451c-.666.313-2.934.67-4.253.67" fill="#FF0"/><path d="M17.79 22.948c-2.088-.013-3.88-.567-4.258-.662l.275.43c.666.284 2.415.705 4.004.657 1.59-.047 2.977-.172 3.953-.644l.283-.451c-.666.313-2.934.67-4.253.67m4.902-2.742v.117c-.13.154-.928.386-1.93.545-.99.144-1.992.213-2.993.207a18.8 18.8 0 01-2.845-.198 7.08 7.08 0 01-2.032-.546v-.137c.447.296 1.646.511 2.05.575.721.112 1.654.194 2.827.194a19.79 19.79 0 002.977-.202c.721-.103 1.744-.374 1.946-.555v0zm0-.416v.12c-.13.15-.928.383-1.93.541-.99.145-1.992.213-2.993.207-1.178 0-2.114-.086-2.84-.194a7.092 7.092 0 01-2.037-.55v-.137c.447.296 1.646.515 2.05.576.726.111 1.658.197 2.827.197 1.233 0 2.22-.086 2.977-.206.721-.103 1.744-.374 1.946-.554v0z" stroke="#000" stroke-width=".7" stroke-linecap="round" stroke-linejoin="round"/><path fill-rule="evenodd" clip-rule="evenodd" d="M21.87 22.626a6.413 6.413 0 01-.128.189c-.488.161-.986.29-1.49.382-.811.15-1.634.224-2.458.224-1.852-.026-3.368-.387-4.081-.697l-.06-.098.012-.018.095.04c1.304.431 2.668.656 4.042.665.86.004 1.719-.099 2.41-.22 1.066-.214 1.496-.373 1.629-.446l.03-.021v0zm.246-.404h.004l-.095.163c-.244.086-.915.284-1.89.421-.644.086-1.044.172-2.32.198a15.937 15.937 0 01-4.317-.645l-.052-.107c1.425.39 2.892.607 4.37.644 1.168-.026 1.666-.111 2.302-.202 1.139-.171 1.71-.36 1.882-.416a.115.115 0 00-.005-.01l.12-.046v0z" fill="#FF0" stroke="#000" stroke-width=".6" stroke-linecap="round" stroke-linejoin="round"/><path fill-rule="evenodd" clip-rule="evenodd" d="M22.142 19.889c.008 1.375-.696 2.612-1.264 3.158a4.553 4.553 0 01-3.105 1.289c-1.388.026-2.694-.881-3.046-1.276-.688-.778-1.246-1.762-1.264-3.094.086-1.504.675-2.548 1.53-3.266a4.566 4.566 0 012.938-1.04c1.092.03 2.372.568 3.252 1.633.576.696.83 1.453.959 2.6v-.004zm-4.357-4.71c2.664 0 4.855 2.17 4.855 4.826a4.856 4.856 0 01-4.855 4.825c-2.663 0-4.837-2.166-4.837-4.825 0-2.66 2.174-4.826 4.837-4.826" fill="#FF0"/><path d="M17.785 15.18c2.664 0 4.855 2.17 4.855 4.825a4.856 4.856 0 01-4.855 4.825c-2.663 0-4.837-2.166-4.837-4.825 0-2.66 2.174-4.826 4.837-4.826m4.357 4.71c.008 1.375-.696 2.612-1.264 3.158a4.553 4.553 0 01-3.105 1.289c-1.388.026-2.694-.881-3.046-1.276-.688-.778-1.246-1.762-1.264-3.094.086-1.504.675-2.548 1.53-3.266a4.566 4.566 0 012.938-1.04c1.092.03 2.372.568 3.252 1.633.576.696.83 1.453.959 2.6v-.004z" stroke="#000" stroke-width=".7" stroke-linecap="round" stroke-linejoin="round"/><path fill-rule="evenodd" clip-rule="evenodd" d="M17.798 15.162c2.664 0 4.838 2.178 4.838 4.843 0 2.664-2.174 4.842-4.838 4.842A4.854 4.854 0 0112.957 20a4.856 4.856 0 014.841-4.842v.004zm-4.734 4.843c0 2.604 2.14 4.735 4.734 4.735 2.595 0 4.73-2.131 4.73-4.735 0-2.604-2.135-4.731-4.73-4.731a4.751 4.751 0 00-4.734 4.73v0z" fill="#FF0" stroke="#000" stroke-width=".7" stroke-linecap="round" stroke-linejoin="round"/><path fill-rule="evenodd" clip-rule="evenodd" d="M17.803 15.566c2.427 0 4.429 1.998 4.429 4.434 0 2.44-2.002 4.435-4.43 4.435A4.45 4.45 0 0113.366 20c0-2.436 2.002-4.434 4.433-4.434h.005zM13.473 20c0 2.38 1.954 4.327 4.33 4.327 2.371 0 4.326-1.946 4.326-4.327 0-2.38-1.955-4.327-4.33-4.327A4.341 4.341 0 0013.471 20z" fill="#FF0" stroke="#000" stroke-width=".7" stroke-linecap="round" stroke-linejoin="round"/><path fill-rule="evenodd" clip-rule="evenodd" d="M17.996 15.145h-.417v9.728h.417v-9.729z" fill="#FF0" stroke="#000" stroke-width=".7" stroke-linecap="round" stroke-linejoin="round"/><path fill-rule="evenodd" clip-rule="evenodd" d="M17.953 15.089h.107v9.84h-.107v-9.84zm-.412 0h.107v9.84h-.107v-9.84z" fill="#FF0" stroke="#000" stroke-width=".7" stroke-linecap="round" stroke-linejoin="round"/><path fill-rule="evenodd" clip-rule="evenodd" d="M22.64 20.194v-.366l-.292-.27-1.663-.443-2.397-.245-2.878.146-2.058.49-.412.31v.356l1.048-.473 2.491-.386h2.398l1.761.193 1.22.296.782.392z" fill="#FF0" stroke="#000" stroke-width=".7" stroke-linecap="round" stroke-linejoin="round"/><path fill-rule="evenodd" clip-rule="evenodd" d="M17.798 19.257a16.93 16.93 0 013.132.28c.907.18 1.547.408 1.762.661v.129c-.258-.318-1.117-.55-1.783-.688a17.078 17.078 0 00-3.11-.274c-1.204 0-2.32.116-3.18.283-.687.138-1.607.408-1.723.679v-.129c.065-.189.748-.468 1.71-.662a17.396 17.396 0 013.192-.279v0zm0-.417a17.02 17.02 0 013.136.28c.903.18 1.547.408 1.762.666v.124c-.262-.318-1.126-.55-1.787-.683a16.68 16.68 0 00-3.11-.28 17.262 17.262 0 00-3.171.284c-.666.13-1.624.413-1.732.68v-.13c.065-.184.765-.472 1.71-.657a17.406 17.406 0 013.192-.284v0zm-.021-2.118c1.8-.009 3.372.253 4.09.623l.262.451c-.623-.335-2.32-.687-4.352-.631-1.654.008-3.42.18-4.31.653l.314-.525c.73-.378 2.45-.567 3.996-.571z" fill="#FF0" stroke="#000" stroke-width=".7" stroke-linecap="round" stroke-linejoin="round"/><path fill-rule="evenodd" clip-rule="evenodd" d="M17.798 17.096c1.031 0 2.02.055 2.81.197.735.138 1.439.344 1.538.456l.077.137c-.245-.159-.85-.34-1.632-.485a15.775 15.775 0 00-2.793-.194c-1.16 0-2.062.056-2.835.194-.816.15-1.383.37-1.525.472l.077-.141c.27-.142.705-.31 1.43-.439.8-.146 1.706-.189 2.853-.197zm0-.413c.908-.014 1.815.05 2.711.19.597.115 1.186.296 1.405.455l.111.18c-.193-.215-.919-.417-1.563-.528-.748-.13-1.68-.18-2.664-.19-1.03 0-1.984.065-2.723.198-.705.138-1.16.297-1.354.421l.1-.154c.265-.138.695-.267 1.236-.374.744-.133 1.706-.198 2.741-.198zm2.406 5.332a12.6 12.6 0 00-2.406-.18c-3.003.034-3.97.614-4.09.79l-.223-.364c.76-.555 2.393-.864 4.326-.834 1.001.017 1.865.086 2.595.223l-.206.366" fill="#FF0"/><path d="M20.204 22.015a12.6 12.6 0 00-2.406-.18c-3.003.034-3.97.614-4.09.79l-.223-.364c.76-.555 2.393-.864 4.326-.834 1.001.017 1.865.086 2.595.223l-.206.366m-2.402-4.92c1.031 0 2.02.055 2.81.197.735.138 1.439.344 1.538.456l.077.137c-.245-.159-.85-.34-1.632-.485a15.775 15.775 0 00-2.793-.194c-1.16 0-2.062.056-2.835.194-.816.15-1.383.37-1.525.472l.077-.141c.27-.142.705-.31 1.43-.439.8-.146 1.706-.189 2.853-.197v0zm0-.413c.908-.014 1.815.05 2.711.19.597.115 1.186.296 1.405.455l.111.18c-.193-.215-.919-.417-1.563-.528-.748-.13-1.68-.18-2.664-.19-1.03 0-1.984.065-2.723.198-.705.138-1.16.297-1.354.421l.1-.154c.265-.138.695-.267 1.236-.374.744-.133 1.706-.198 2.741-.198v0z" stroke="#000" stroke-width=".7" stroke-linecap="round" stroke-linejoin="round"/><path fill-rule="evenodd" clip-rule="evenodd" d="M17.781 21.783c.834.013 1.654.043 2.449.194l-.06.103a12.784 12.784 0 00-2.385-.185c-1.108-.009-2.233.095-3.204.374-.31.086-.817.283-.872.447l-.056-.095c.017-.094.326-.296.902-.455 1.117-.323 2.16-.374 3.222-.387l.004.004zm.039-.42c.88-.002 1.758.075 2.625.227l-.06.107a13.707 13.707 0 00-2.56-.223c-1.114 0-2.29.081-3.365.39-.343.104-.945.319-.962.49l-.056-.098c.013-.155.529-.361.997-.498a12.238 12.238 0 013.38-.396v0z" fill="#FF0" stroke="#000" stroke-width=".6" stroke-linecap="round" stroke-linejoin="round"/><path fill-rule="evenodd" clip-rule="evenodd" d="M22.081 22.316l-.36.559-1.036-.92-2.689-1.804-3.029-1.668-1.576-.537.335-.623.116-.06.98.245 3.221 1.663 1.86 1.173 1.56 1.117.636.735-.018.12z" fill="#FF0" stroke="#000" stroke-width=".7" stroke-linecap="round" stroke-linejoin="round"/><path fill-rule="evenodd" clip-rule="evenodd" d="M13.335 17.96c.279-.185 2.307.717 4.425 1.997 2.118 1.285 4.141 2.733 3.96 3.008l-.06.09-.03.022c.01 0 .04-.043 0-.142-.094-.296-1.525-1.44-3.909-2.879-2.32-1.383-4.253-2.217-4.446-1.976l.06-.12v0zm8.82 4.348c.171-.344-1.706-1.762-4.039-3.141-2.384-1.354-4.107-2.149-4.42-1.912l-.07.129c0 .004 0-.009.018-.022.056-.047.15-.043.193-.043.542.005 2.088.713 4.253 1.96.95.55 4.013 2.518 4 3.067 0 .048.004.056-.013.082l.078-.12z" fill="#FF0" stroke="#000" stroke-width=".7" stroke-linecap="round" stroke-linejoin="round"/><path d="M14.898 20.536a2.87 2.87 0 00.855 2.039 2.884 2.884 0 002.043.86 2.903 2.903 0 002.904-2.894v-3.872l-5.802-.01v3.877z" fill="#fff" stroke="#000" stroke-width=".796"/><path d="M15.005 20.541a2.758 2.758 0 00.821 1.956c.52.523 1.228.819 1.965.821a2.781 2.781 0 002.782-2.767v-3.764h-5.558v3.754h-.01zm4.458-2.625v2.39l-.005.25a1.624 1.624 0 01-.488 1.173 1.668 1.668 0 01-1.174.49 1.64 1.64 0 01-1.168-.5 1.663 1.663 0 01-.489-1.173v-2.64l3.324.01z" fill="red" stroke="#000" stroke-width=".569"/><path d="M15.367 17.77c.005-.27.195-.333.195-.333.005 0 .21.069.21.337h-.405" fill="#FF0"/><path d="M15.2 17.442l-.033.308h.205c0-.254.195-.293.195-.293.005 0 .196.053.2.293h.206l-.039-.313h-.733v.005zm-.048.313h.83c.016 0 .03.015.03.034 0 .024-.014.04-.03.04h-.83c-.015 0-.03-.015-.03-.04 0-.02.015-.034.035-.034h-.005z" fill="#FF0" stroke="#000" stroke-width=".569"/><path d="M15.455 17.75c0-.162.112-.206.112-.206s.113.05.113.206h-.225zm-.284-.44h.797c.015 0 .03.02.03.039 0 .014-.015.03-.03.03h-.797c-.014 0-.029-.016-.029-.035 0-.015.015-.03.03-.03v-.004zm.02.073h.753c.014 0 .029.015.029.034 0 .02-.015.034-.03.034h-.757c-.02 0-.03-.014-.03-.034 0-.02.01-.034.03-.034h.005zm.244-.518h.059v.039h.044v-.04h.064v.045h.043v-.05h.06v.099c0 .02-.01.029-.025.029h-.215c-.015 0-.03-.01-.03-.024v-.098zm.225.132l.015.313h-.21l.014-.318h.181" fill="#FF0"/><path d="M15.66 16.997l.015.313h-.21l.014-.318h.181m-.205.758c0-.162.112-.206.112-.206s.113.05.113.206h-.225zm-.284-.44h.797c.015 0 .03.02.03.039 0 .014-.015.03-.03.03h-.797c-.014 0-.029-.016-.029-.035 0-.015.015-.03.03-.03v-.004zm.02.073h.753c.014 0 .029.015.029.034 0 .02-.015.034-.03.034h-.757c-.02 0-.03-.014-.03-.034 0-.02.01-.034.03-.034h.005zm.244-.518h.059v.039h.044v-.04h.064v.045h.043v-.05h.06v.099c0 .02-.01.029-.025.029h-.215c-.015 0-.03-.01-.03-.024v-.098z" stroke="#000" stroke-width=".569"/><path d="M15.406 17.144v.166h-.195v-.166h.195zm-.229-.128h.058v.049h.044v-.049h.059v.049h.044v-.049h.059v.098c0 .02-.01.03-.025.03h-.21a.03.03 0 01-.03-.03v-.098 0z" fill="#FF0" stroke="#000" stroke-width=".569"/><path d="M15.548 17.095c0-.03.044-.03.044 0v.078h-.044v-.078zm-.259.107c0-.03.039-.03.039 0v.059h-.04v-.059z" fill="#000"/><path d="M17.44 20.116a.406.406 0 00.224.365c.045.02.093.03.142.03a.358.358 0 00.26-.116.406.406 0 00.107-.28v-.527h-.733v.528z" fill="#039"/><path d="M17.61 19.861a.073.073 0 100-.146.073.073 0 000 .146zm.406 0a.073.073 0 100-.146.073.073 0 000 .146zm-.205.196a.073.073 0 100-.146.073.073 0 000 .146zm-.201.206a.073.073 0 100-.147.073.073 0 000 .147zm.406 0a.073.073 0 100-.147.073.073 0 000 .147z" fill="#fff"/></svg>