<svg width="40" height="40" fill="none" xmlns="http://www.w3.org/2000/svg"><path stroke="#252726" stroke-width="2" d="M1 1h38v38H1z"/><path fill-rule="evenodd" clip-rule="evenodd" d="M9 9h22v22H9V9z" fill="#E30A17"/><path fill-rule="evenodd" clip-rule="evenodd" d="M23.988 20.344c0 3.033-2.505 5.496-5.59 5.496-3.086 0-5.59-2.463-5.59-5.5 0-3.038 2.5-5.492 5.585-5.492s5.599 2.458 5.599 5.496h-.004z" fill="#fff"/><path fill-rule="evenodd" clip-rule="evenodd" d="M24.267 20.344c0 2.428-2.003 4.396-4.473 4.396-2.471 0-4.469-1.968-4.469-4.396s1.998-4.396 4.469-4.396c2.47 0 4.468 1.968 4.468 4.396h.005z" fill="#E30A17"/><path fill-rule="evenodd" clip-rule="evenodd" d="M25.075 17.774l-.043 2.033-1.9.516 1.87.665-.043 1.861 1.215-1.452 1.844.636-1.066-1.56 1.298-1.551-1.994.55-1.181-1.698z" fill="#fff"/></svg>