<svg width="40" height="40" fill="none" xmlns="http://www.w3.org/2000/svg"><path stroke="#252726" stroke-width="2" d="M1 1h38v38H1z"/><mask id="a" maskUnits="userSpaceOnUse" x="9" y="9" width="22" height="22"><path fill="#C4C4C4" d="M9 9h22v22H9z"/></mask><g mask="url(#a)" fill-rule="evenodd" clip-rule="evenodd"><path d="M8.87 9.069h41.8v1.692H8.87V9.07zm0 3.384h41.8v1.693H8.87v-1.693zm0 3.385h41.8v1.693H8.87v-1.693zm0 3.385h41.8v1.692H8.87v-1.692zm0 3.384h41.8V24.3H8.87v-1.693zm0 3.385h41.8v1.692H8.87v-1.692zm0 3.385h41.8v1.692H8.87v-1.692z" fill="#BD3D44"/><path d="M8.87 10.761h41.8v1.693H8.87V10.76zm0 3.385h41.8v1.692H8.87v-1.692zm0 3.384h41.8v1.693H8.87V17.53zm0 3.385h41.8v1.693H8.87v-1.693zm0 3.385h41.8v1.692H8.87V24.3zm0 3.384h41.8v1.693H8.87v-1.692z" fill="#fff"/><path d="M8.87 9.069h16.72v11.846H8.87V9.07z" fill="#192F5D"/><path d="M10.258 9.577l.169.473h.474l-.39.288.153.457-.406-.288-.373.288.153-.457-.406-.287h.507l.119-.474zm2.792 0l.152.473h.491l-.406.288.17.457-.407-.288-.406.288.17-.457-.407-.287h.49l.153-.474zm2.792 0l.153.473h.49l-.406.288.17.457-.407-.288-.406.288.17-.457-.407-.287h.491l.152-.474zm2.776 0l.17.473h.473l-.39.288.153.457-.406-.288-.39.288.153-.457-.406-.287h.507l.136-.474zm2.792 0l.152.473h.491l-.406.288.17.457-.424-.288-.389.288.152-.457-.406-.287h.49l.17-.474zm2.793 0l.152.473h.49l-.406.288.17.457-.407-.288-.406.288.17-.457-.407-.287h.491l.152-.474zm-12.54 1.184l.152.474h.49l-.406.288.17.457-.407-.288-.406.288.17-.457-.407-.288h.491l.152-.474zm2.775 0l.169.474h.474l-.39.288.153.457-.406-.288-.39.288.153-.457-.406-.288h.507l.136-.474zm2.792 0l.152.474h.491l-.406.288.17.457-.407-.288-.406.288.17-.457-.407-.288h.49l.153-.474zm2.793 0l.152.474h.49l-.406.288.17.457-.406-.288-.407.288.17-.457-.407-.288h.491l.152-.474zm2.775 0l.17.474h.456l-.39.288.153.457-.406-.288-.39.288.153-.457-.406-.288h.508l.152-.474zm-12.523 1.185l.135.474h.508l-.406.287.152.457-.406-.287-.373.287.153-.457-.406-.287h.507l.136-.474zm2.775 0l.152.474h.491l-.39.287.153.457-.406-.287-.39.287.153-.457-.406-.287h.49l.153-.474zm2.792 0l.153.474h.49l-.406.287.17.457-.407-.287-.406.287.17-.457-.407-.287h.491l.152-.474zm2.776 0l.17.474h.473l-.39.287.153.457-.406-.287-.39.287.153-.457-.406-.287h.507l.136-.474zm2.792 0l.152.474h.491l-.389.287.152.457-.406-.287-.39.287.153-.457-.406-.287h.49l.153-.474zm2.793 0l.152.474h.49l-.406.287.17.457-.407-.287-.406.287.17-.457-.407-.287h.491l.152-.474zm-12.54 1.184l.152.474h.49l-.406.288.17.457-.407-.288-.406.288.17-.457-.407-.288h.491l.152-.473zm2.775 0l.169.474h.474l-.39.288.153.457-.406-.288-.39.288.153-.457-.406-.288h.507l.136-.473zm2.792 0l.152.474h.491l-.389.288.152.457-.406-.288-.39.288.153-.457-.406-.288h.49l.153-.473zm2.793 0l.152.474h.49l-.406.288.17.457-.406-.288-.407.288.17-.457-.407-.288h.491l.152-.473zm2.775 0l.17.474h.456l-.39.288.153.457-.406-.288-.39.288.153-.457-.406-.288h.508l.152-.473zm-12.523 1.185l.135.474h.508l-.406.288.152.457-.406-.288-.373.288.153-.457-.406-.288h.507l.136-.474zm2.775 0l.152.474h.491l-.39.288.153.457-.406-.288-.39.288.153-.457-.406-.288h.49l.153-.474zm2.792 0l.153.474h.49l-.406.288.17.457-.407-.288-.406.288.17-.457-.407-.288h.491l.152-.474zm2.776 0l.17.474h.473l-.39.288.153.457-.406-.288-.39.288.153-.457-.406-.288h.507l.136-.474zm2.792 0l.152.474h.491l-.389.288.152.457-.406-.288-.39.288.153-.457-.406-.288h.49l.153-.474zm2.793 0l.152.474h.49l-.406.288.17.457-.407-.288-.406.288.17-.457-.407-.288h.491l.152-.474zM11.663 15.5l.152.474h.49l-.406.287.17.457-.407-.287-.406.287.17-.457-.407-.287h.491l.152-.474zm2.775 0l.169.474h.474l-.39.287.153.457-.406-.287-.39.287.153-.457-.406-.287h.507l.136-.474zm2.792 0l.152.474h.491l-.389.287.152.457-.406-.287-.39.287.153-.457-.406-.287h.49l.153-.474zm2.793 0l.152.474h.49l-.406.287.17.457-.406-.287-.407.287.17-.457-.407-.287h.491l.152-.474zm2.775 0l.17.474h.456l-.39.287.153.457-.406-.287-.39.287.153-.457-.406-.287h.508l.152-.474zm-12.523 1.184l.135.474h.508l-.406.288.152.457-.406-.288-.373.288.153-.457-.406-.288h.507l.136-.474zm2.775 0l.152.474h.491l-.39.288.153.457-.406-.288-.39.288.153-.457-.406-.288h.49l.153-.474zm2.792 0l.153.474h.49l-.406.288.17.457-.407-.288-.406.288.17-.457-.407-.288h.491l.152-.474zm2.776 0l.17.474h.473l-.39.288.153.457-.406-.288-.39.288.153-.457-.406-.288h.507l.136-.474zm2.792 0l.152.474h.491l-.389.288.152.457-.406-.288-.39.288.153-.457-.406-.288h.49l.153-.474zm2.793 0l.152.474h.49l-.406.288.17.457-.407-.288-.406.288.17-.457-.407-.288h.491l.152-.474zm-12.54 1.185l.152.474h.49l-.406.288.17.456-.407-.287-.406.287.17-.456-.407-.288h.491l.152-.474zm2.775 0l.169.474h.474l-.39.288.153.456-.406-.287-.39.287.153-.456-.406-.288h.507l.136-.474zm2.792 0l.152.474h.491l-.389.288.152.456-.406-.287-.39.287.153-.456-.406-.288h.49l.153-.474zm2.793 0l.152.474h.49l-.406.288.17.456-.406-.287-.407.287.17-.456-.407-.288h.491l.152-.474zm2.775 0l.17.474h.456l-.39.288.153.456-.406-.287-.39.287.153-.456-.406-.288h.508l.152-.474zm-12.523 1.185l.135.474h.508l-.406.287.152.457-.406-.287-.373.287.153-.457-.406-.288h.507l.136-.473zm2.775 0l.152.474h.491l-.39.287.153.457-.406-.287-.39.287.153-.457-.406-.288h.49l.153-.473zm2.792 0l.153.474h.49l-.406.287.17.457-.407-.287-.406.287.17-.457-.407-.288h.491l.152-.473zm2.776 0l.17.474h.473l-.39.287.153.457-.406-.287-.39.287.153-.457-.406-.288h.507l.136-.473zm2.792 0l.152.474h.491l-.389.287.152.457-.406-.287-.39.287.153-.457-.406-.288h.49l.153-.473zm2.793 0l.152.474h.49l-.406.287.17.457-.407-.287-.406.287.17-.457-.407-.288h.491l.152-.473z" fill="#fff"/></g></svg>