<svg width="40" height="40" fill="none" xmlns="http://www.w3.org/2000/svg"><path stroke="#252726" stroke-width="2" d="M1 1h38v38H1z"/><path d="M9 23.665h22V31H9v-7.335z" fill="#1EB53A"/><path d="M9 9h22v7.335H9V9z" fill="#0099B5"/><path d="M9 16.038h22v7.924H9v-7.924z" fill="#CE1126"/><path d="M9 16.477h22v7.046H9v-7.046zm6.162-1.32a2.638 2.638 0 100-5.276 2.638 2.638 0 000 5.276z" fill="#fff"/><path d="M16.038 15.157a2.638 2.638 0 100-5.276 2.638 2.638 0 000 5.276z" fill="#0099B5"/><path d="M16.8 14.253l.116.356h.375l-.303.22.116.357-.303-.22-.303.22.115-.357-.303-.22h.375l.116-.356zm2.063 0l.116.356h.375l-.303.22.115.357-.303-.22-.303.22.116-.357-.303-.22h.374l.116-.356zm2.063 0l.116.356h.374l-.303.22.116.357-.303-.22-.303.22.115-.357-.303-.22h.375l.116-.356zm2.062 0l.116.356h.375l-.303.22.115.357-.303-.22-.303.22.116-.357-.303-.22h.374l.116-.356zm2.062 0l.116.356h.375l-.303.22.116.357-.303-.22-.303.22.115-.357-.303-.22h.375l.116-.356zm-6.187-2.063l.116.357h.375l-.303.22.115.356-.303-.22-.303.22.116-.356-.303-.22h.374l.116-.357zm2.063 0l.116.357h.374l-.303.22.116.356-.303-.22-.303.22.115-.356-.303-.22h.375l.116-.357zm2.062 0l.116.357h.375l-.303.22.115.356-.303-.22-.303.22.116-.356-.303-.22h.374l.116-.357zm2.062 0l.116.357h.375l-.303.22.116.356-.303-.22-.303.22.115-.356-.303-.22h.375l.116-.357zm-4.124-2.062l.116.356h.374l-.303.22.116.357-.303-.22-.303.22.115-.357-.303-.22h.375l.116-.356zm2.062 0l.116.356h.375l-.303.22.115.357-.303-.22-.303.22.116-.357-.303-.22h.374l.116-.356zm2.062 0l.116.356h.375l-.303.22.116.357-.303-.22-.303.22.115-.357-.303-.22h.375l.116-.356z" fill="#fff"/></svg>