<svg width="110" height="110" fill="none" xmlns="http://www.w3.org/2000/svg"><path d="M99.688 89.375H10.311a3.438 3.438 0 01-3.437-3.438V27.5a3.438 3.438 0 013.438-3.438h22.206l5.878-8.765a3.437 3.437 0 012.853-1.547h27.5a3.438 3.438 0 012.853 1.547l5.878 8.765h22.207a3.436 3.436 0 013.437 3.438v58.438a3.436 3.436 0 01-3.438 3.437zM13.75 82.5h82.5V30.937H75.625a3.438 3.438 0 01-2.853-1.546l-5.878-8.766H43.106l-5.878 8.766a3.437 3.437 0 01-2.853 1.547H13.75V82.5z" fill="#DD2B1C"/><path d="M99.688 89.375H10.311a3.438 3.438 0 01-3.437-3.438V27.5a3.438 3.438 0 013.438-3.438h22.206l5.878-8.765a3.437 3.437 0 012.853-1.547h27.5a3.438 3.438 0 012.853 1.547l5.878 8.765h22.207a3.436 3.436 0 013.437 3.438v58.438a3.436 3.436 0 01-3.438 3.437zM13.75 82.5h82.5V30.937H75.625a3.438 3.438 0 01-2.853-1.546l-5.878-8.766H43.106l-5.878 8.766a3.437 3.437 0 01-2.853 1.547H13.75V82.5z" fill="url(#paint0_linear)"/><path d="M55 75.625a20.625 20.625 0 110-41.25 20.625 20.625 0 010 41.25zm0-34.375a13.75 13.75 0 100 27.5 13.75 13.75 0 000-27.5z" fill="#DD2B1C"/><path d="M55 75.625a20.625 20.625 0 110-41.25 20.625 20.625 0 010 41.25zm0-34.375a13.75 13.75 0 100 27.5 13.75 13.75 0 000-27.5z" fill="url(#paint1_linear)"/><defs><linearGradient id="paint0_linear" x1="103.054" y1="62.342" x2="78.295" y2="90.472" gradientUnits="userSpaceOnUse"><stop stop-color="#FF5C00"/><stop offset="1" stop-color="#CD1000"/></linearGradient><linearGradient id="paint1_linear" x1="75.595" y1="60.88" x2="62.066" y2="72.956" gradientUnits="userSpaceOnUse"><stop stop-color="#FF5C00"/><stop offset="1" stop-color="#CD1000"/></linearGradient></defs></svg>