<svg width="110" height="110" fill="none" xmlns="http://www.w3.org/2000/svg"><path d="M20.625 55H41.25v6.875H20.625V55z" fill="#DD2B1C"/><path d="M20.625 55H41.25v6.875H20.625V55z" fill="url(#paint0_linear)"/><path d="M20.625 41.25H55v6.875H20.625V41.25z" fill="#DD2B1C"/><path d="M20.625 41.25H55v6.875H20.625V41.25z" fill="url(#paint1_linear)"/><path d="M20.625 27.5H55v6.875H20.625V27.5z" fill="#DD2B1C"/><path d="M20.625 27.5H55v6.875H20.625V27.5z" fill="url(#paint2_linear)"/><path d="M48.125 89.375H13.75v-68.75h82.5V55h6.875V20.625a6.873 6.873 0 00-6.875-6.875h-82.5a6.875 6.875 0 00-6.875 6.875v68.75a6.875 6.875 0 006.875 6.875h34.375v-6.875z" fill="#DD2B1C"/><path d="M48.125 89.375H13.75v-68.75h82.5V55h6.875V20.625a6.873 6.873 0 00-6.875-6.875h-82.5a6.875 6.875 0 00-6.875 6.875v68.75a6.875 6.875 0 006.875 6.875h34.375v-6.875z" fill="url(#paint3_linear)"/><path d="M75.625 87.966l-8.903-8.903-4.847 4.846 13.75 13.75 27.5-27.5-4.847-4.847-22.653 22.654z" fill="#DD2B1C"/><path d="M75.625 87.966l-8.903-8.903-4.847 4.846 13.75 13.75 27.5-27.5-4.847-4.847-22.653 22.654z" fill="url(#paint4_linear)"/><defs><linearGradient id="paint0_linear" x1="103.054" y1="67.665" x2="75.366" y2="96.017" gradientUnits="userSpaceOnUse"><stop stop-color="#FF5C00"/><stop offset="1" stop-color="#CD1000"/></linearGradient><linearGradient id="paint1_linear" x1="103.054" y1="67.665" x2="75.366" y2="96.017" gradientUnits="userSpaceOnUse"><stop stop-color="#FF5C00"/><stop offset="1" stop-color="#CD1000"/></linearGradient><linearGradient id="paint2_linear" x1="103.054" y1="67.665" x2="75.366" y2="96.017" gradientUnits="userSpaceOnUse"><stop stop-color="#FF5C00"/><stop offset="1" stop-color="#CD1000"/></linearGradient><linearGradient id="paint3_linear" x1="103.054" y1="67.665" x2="75.366" y2="96.017" gradientUnits="userSpaceOnUse"><stop stop-color="#FF5C00"/><stop offset="1" stop-color="#CD1000"/></linearGradient><linearGradient id="paint4_linear" x1="103.054" y1="67.665" x2="75.366" y2="96.017" gradientUnits="userSpaceOnUse"><stop stop-color="#FF5C00"/><stop offset="1" stop-color="#CD1000"/></linearGradient></defs></svg>