<svg width="110" height="110" fill="none" xmlns="http://www.w3.org/2000/svg"><path d="M13.75 55H55v6.874H13.75V55z" fill="#DD2B1C"/><path d="M13.75 55H55v6.874H13.75V55z" fill="url(#paint0_linear)"/><path d="M6.875 37.812H41.25v6.875H6.875v-6.875z" fill="#DD2B1C"/><path d="M6.875 37.812H41.25v6.875H6.875v-6.875z" fill="url(#paint1_linear)"/><path d="M102.847 57.083L92.535 33.021a3.434 3.434 0 00-3.16-2.084H79.064v-6.875a3.438 3.438 0 00-3.437-3.437h-55V27.5h51.562v43.161a13.723 13.723 0 00-6.387 8.401h-21.6a13.75 13.75 0 100 6.876h21.6a13.681 13.681 0 0026.524 0h7.363a3.438 3.438 0 003.438-3.438V58.437a3.43 3.43 0 00-.279-1.354zM30.938 89.375a6.875 6.875 0 116.875-6.875 6.881 6.881 0 01-6.875 6.875zm48.125-51.563h8.044L94.477 55H79.063V37.812zm0 51.563a6.875 6.875 0 116.875-6.875 6.881 6.881 0 01-6.875 6.875zm17.188-10.313h-3.926A13.733 13.733 0 0079.063 68.75v-6.875h17.188v17.188z" fill="#DD2B1C"/><path d="M102.847 57.083L92.535 33.021a3.434 3.434 0 00-3.16-2.084H79.064v-6.875a3.438 3.438 0 00-3.437-3.437h-55V27.5h51.562v43.161a13.723 13.723 0 00-6.387 8.401h-21.6a13.75 13.75 0 100 6.876h21.6a13.681 13.681 0 0026.524 0h7.363a3.438 3.438 0 003.438-3.438V58.437a3.43 3.43 0 00-.279-1.354zM30.938 89.375a6.875 6.875 0 116.875-6.875 6.881 6.881 0 01-6.875 6.875zm48.125-51.563h8.044L94.477 55H79.063V37.812zm0 51.563a6.875 6.875 0 116.875-6.875 6.881 6.881 0 01-6.875 6.875zm17.188-10.313h-3.926A13.733 13.733 0 0079.063 68.75v-6.875h17.188v17.188z" fill="url(#paint2_linear)"/><defs><linearGradient id="paint0_linear" x1="102.898" y1="26.227" x2="40.256" y2="112.818" gradientUnits="userSpaceOnUse"><stop stop-color="#FF5C00"/><stop offset="1" stop-color="#CD1000"/></linearGradient><linearGradient id="paint1_linear" x1="102.898" y1="26.227" x2="40.256" y2="112.818" gradientUnits="userSpaceOnUse"><stop stop-color="#FF5C00"/><stop offset="1" stop-color="#CD1000"/></linearGradient><linearGradient id="paint2_linear" x1="102.898" y1="26.227" x2="40.256" y2="112.818" gradientUnits="userSpaceOnUse"><stop stop-color="#FF5C00"/><stop offset="1" stop-color="#CD1000"/></linearGradient></defs></svg>