<svg width="110" height="110" fill="none" xmlns="http://www.w3.org/2000/svg"><path d="M65.313 34.375h24.062v6.875H65.312v-6.875z" fill="#DD2B1C"/><path d="M65.313 34.375h24.062v6.875H65.312v-6.875z" fill="url(#paint0_linear)"/><path d="M65.313 51.563h24.062v6.874H65.312v-6.874z" fill="#DD2B1C"/><path d="M65.313 51.563h24.062v6.874H65.312v-6.874z" fill="url(#paint1_linear)"/><path d="M65.313 68.75h24.062v6.875H65.312V68.75z" fill="#DD2B1C"/><path d="M65.313 68.75h24.062v6.875H65.312V68.75z" fill="url(#paint2_linear)"/><path d="M96.25 17.188h-82.5a6.882 6.882 0 00-6.875 6.875v61.874a6.882 6.882 0 006.875 6.876h82.5a6.884 6.884 0 006.875-6.876V24.063a6.882 6.882 0 00-6.875-6.875zm-82.5 6.875h37.813v61.874H13.75V24.063zm44.688 61.874V24.063H96.25l.007 61.874h-37.82z" fill="#DD2B1C"/><path d="M96.25 17.188h-82.5a6.882 6.882 0 00-6.875 6.875v61.874a6.882 6.882 0 006.875 6.876h82.5a6.884 6.884 0 006.875-6.876V24.063a6.882 6.882 0 00-6.875-6.875zm-82.5 6.875h37.813v61.874H13.75V24.063zm44.688 61.874V24.063H96.25l.007 61.874h-37.82z" fill="url(#paint3_linear)"/><defs><linearGradient id="paint0_linear" x1="103.054" y1="65.78" x2="78.295" y2="93.91" gradientUnits="userSpaceOnUse"><stop stop-color="#FF5C00"/><stop offset="1" stop-color="#CD1000"/></linearGradient><linearGradient id="paint1_linear" x1="103.054" y1="65.78" x2="78.295" y2="93.91" gradientUnits="userSpaceOnUse"><stop stop-color="#FF5C00"/><stop offset="1" stop-color="#CD1000"/></linearGradient><linearGradient id="paint2_linear" x1="103.054" y1="65.78" x2="78.295" y2="93.91" gradientUnits="userSpaceOnUse"><stop stop-color="#FF5C00"/><stop offset="1" stop-color="#CD1000"/></linearGradient><linearGradient id="paint3_linear" x1="103.054" y1="65.78" x2="78.295" y2="93.91" gradientUnits="userSpaceOnUse"><stop stop-color="#FF5C00"/><stop offset="1" stop-color="#CD1000"/></linearGradient></defs></svg>