<svg width="110" height="110" fill="none" xmlns="http://www.w3.org/2000/svg"><path fill-rule="evenodd" clip-rule="evenodd" d="M74.622 56.01a3.438 3.438 0 010 4.867L53.997 81.502a3.438 3.438 0 01-4.867 0L38.817 71.19a3.442 3.442 0 014.868-4.868l7.878 7.886L69.755 56.01a3.438 3.438 0 014.867 0z" fill="#DD2B1C"/><path fill-rule="evenodd" clip-rule="evenodd" d="M74.622 56.01a3.438 3.438 0 010 4.867L53.997 81.502a3.438 3.438 0 01-4.867 0L38.817 71.19a3.442 3.442 0 014.868-4.868l7.878 7.886L69.755 56.01a3.438 3.438 0 014.867 0z" fill="url(#paint0_linear)"/><path d="M55 6.875a17.188 17.188 0 0117.188 17.188V27.5H37.812v-3.438A17.187 17.187 0 0155 6.875zM79.063 27.5v-3.438a24.063 24.063 0 00-48.126 0V27.5H6.875v68.75A13.751 13.751 0 0020.625 110h68.75a13.752 13.752 0 0013.75-13.75V27.5H79.062zM13.75 34.375h82.5V96.25a6.873 6.873 0 01-6.875 6.875h-68.75a6.873 6.873 0 01-6.875-6.875V34.375z" fill="#DD2B1C"/><path d="M55 6.875a17.188 17.188 0 0117.188 17.188V27.5H37.812v-3.438A17.187 17.187 0 0155 6.875zM79.063 27.5v-3.438a24.063 24.063 0 00-48.126 0V27.5H6.875v68.75A13.751 13.751 0 0020.625 110h68.75a13.752 13.752 0 0013.75-13.75V27.5H79.062zM13.75 34.375h82.5V96.25a6.873 6.873 0 01-6.875 6.875h-68.75a6.873 6.873 0 01-6.875-6.875V34.375z" fill="url(#paint1_linear)"/><defs><linearGradient id="paint0_linear" x1="102.87" y1="8.148" x2="7.13" y2="110" gradientUnits="userSpaceOnUse"><stop stop-color="#FF5C00"/><stop offset="1" stop-color="#CD1000"/></linearGradient><linearGradient id="paint1_linear" x1="102.87" y1="8.148" x2="7.13" y2="110" gradientUnits="userSpaceOnUse"><stop stop-color="#FF5C00"/><stop offset="1" stop-color="#CD1000"/></linearGradient></defs></svg>