<svg width="110" height="110" fill="none" xmlns="http://www.w3.org/2000/svg"><path d="M72.42 68.877a3.544 3.544 0 100 7.088h14.175a3.544 3.544 0 000-7.088H72.42z" fill="#DD2B1C"/><path d="M72.42 68.877a3.544 3.544 0 100 7.088h14.175a3.544 3.544 0 000-7.088H72.42z" fill="url(#paint0_linear)"/><path d="M5.217 33.826A14.175 14.175 0 0119.392 19.65h70.876a14.176 14.176 0 0114.176 14.176V76.35a14.177 14.177 0 01-14.176 14.176H19.392A14.175 14.175 0 015.217 76.35V33.826zm92.139 0a7.088 7.088 0 00-7.088-7.088H19.392a7.088 7.088 0 00-7.088 7.088v7.087h85.052v-7.087zM12.304 76.35a7.088 7.088 0 007.088 7.088h70.876a7.088 7.088 0 007.088-7.088V48H12.304v28.35z" fill="#DD2B1C"/><path d="M5.217 33.826A14.175 14.175 0 0119.392 19.65h70.876a14.176 14.176 0 0114.176 14.176V76.35a14.177 14.177 0 01-14.176 14.176H19.392A14.175 14.175 0 015.217 76.35V33.826zm92.139 0a7.088 7.088 0 00-7.088-7.088H19.392a7.088 7.088 0 00-7.088 7.088v7.087h85.052v-7.087zM12.304 76.35a7.088 7.088 0 007.088 7.088h70.876a7.088 7.088 0 007.088-7.088V48H12.304v28.35z" fill="url(#paint1_linear)"/><defs><linearGradient id="paint0_linear" x1="104.181" y1="24.901" x2="50.193" y2="116.796" gradientUnits="userSpaceOnUse"><stop stop-color="#FF5C00"/><stop offset="1" stop-color="#CD1000"/></linearGradient><linearGradient id="paint1_linear" x1="104.181" y1="24.901" x2="50.193" y2="116.796" gradientUnits="userSpaceOnUse"><stop stop-color="#FF5C00"/><stop offset="1" stop-color="#CD1000"/></linearGradient></defs></svg>