<svg width="110" height="110" fill="none" xmlns="http://www.w3.org/2000/svg"><path d="M60.981 103.125L55 99.687l13.75-24.062h20.625a6.875 6.875 0 006.875-6.875V27.5a6.875 6.875 0 00-6.875-6.875h-68.75A6.875 6.875 0 0013.75 27.5v41.25a6.875 6.875 0 006.875 6.875h30.938V82.5H20.625a13.75 13.75 0 01-13.75-13.75V27.5a13.75 13.75 0 0113.75-13.75h68.75a13.75 13.75 0 0113.75 13.75v41.25a13.751 13.751 0 01-13.75 13.75H72.737l-11.756 20.625z" fill="#DD2B1C"/><path d="M60.981 103.125L55 99.687l13.75-24.062h20.625a6.875 6.875 0 006.875-6.875V27.5a6.875 6.875 0 00-6.875-6.875h-68.75A6.875 6.875 0 0013.75 27.5v41.25a6.875 6.875 0 006.875 6.875h30.938V82.5H20.625a13.75 13.75 0 01-13.75-13.75V27.5a13.75 13.75 0 0113.75-13.75h68.75a13.75 13.75 0 0113.75 13.75v41.25a13.751 13.751 0 01-13.75 13.75H72.737l-11.756 20.625z" fill="url(#paint0_linear)"/><path d="M27.5 34.375h55v6.875h-55v-6.875z" fill="#DD2B1C"/><path d="M27.5 34.375h55v6.875h-55v-6.875z" fill="url(#paint1_linear)"/><path d="M27.5 55h34.375v6.875H27.5V55z" fill="#DD2B1C"/><path d="M27.5 55h34.375v6.875H27.5V55z" fill="url(#paint2_linear)"/><defs><linearGradient id="paint0_linear" x1="103.054" y1="71.177" x2="73.577" y2="99.515" gradientUnits="userSpaceOnUse"><stop stop-color="#FF5C00"/><stop offset="1" stop-color="#CD1000"/></linearGradient><linearGradient id="paint1_linear" x1="103.054" y1="71.177" x2="73.577" y2="99.515" gradientUnits="userSpaceOnUse"><stop stop-color="#FF5C00"/><stop offset="1" stop-color="#CD1000"/></linearGradient><linearGradient id="paint2_linear" x1="103.054" y1="71.177" x2="73.577" y2="99.515" gradientUnits="userSpaceOnUse"><stop stop-color="#FF5C00"/><stop offset="1" stop-color="#CD1000"/></linearGradient></defs></svg>