<svg width="110" height="110" fill="none" xmlns="http://www.w3.org/2000/svg"><path d="M27.207 43.546H11.168A5.305 5.305 0 005.96 47.72a104.648 104.648 0 00-.315 44.373l.322 1.544a5.358 5.358 0 005.225 4.25h16.016a5.342 5.342 0 005.336-5.337V48.88a5.342 5.342 0 00-5.337-5.335zm-1.54 47.467H12.443l-.066-.32a97.771 97.771 0 01.034-40.272h13.258v40.592z" fill="#DD2B1C"/><path d="M27.207 43.546H11.168A5.305 5.305 0 005.96 47.72a104.648 104.648 0 00-.315 44.373l.322 1.544a5.358 5.358 0 005.225 4.25h16.016a5.342 5.342 0 005.336-5.337V48.88a5.342 5.342 0 00-5.337-5.335zm-1.54 47.467H12.443l-.066-.32a97.771 97.771 0 01.034-40.272h13.258v40.592z" fill="url(#paint0_linear)"/><path d="M106.23 59.572l-4.745-12.656a5.228 5.228 0 00-4.87-3.374H71.328v-6.346l2.057-4.554A18.93 18.93 0 0063.76 7.524a5.22 5.22 0 00-6.825 2.6L39.679 47.896v5.384h5.099l17.676-38.697a12.062 12.062 0 014.665 15.23l-2.362 5.229-.305 1.414V46.98l3.438 3.438h27.564l4.233 11.285v1.992L85.08 89.366H58.237L39.679 78.48v7.97l15.47 9.076a5.204 5.204 0 002.632.715h28.274a5.209 5.209 0 004.519-2.629l15.308-26.904a5.22 5.22 0 00.68-2.571v-2.74c0-.623-.112-1.241-.332-1.825z" fill="#DD2B1C"/><path d="M106.23 59.572l-4.745-12.656a5.228 5.228 0 00-4.87-3.374H71.328v-6.346l2.057-4.554A18.93 18.93 0 0063.76 7.524a5.22 5.22 0 00-6.825 2.6L39.679 47.896v5.384h5.099l17.676-38.697a12.062 12.062 0 014.665 15.23l-2.362 5.229-.305 1.414V46.98l3.438 3.438h27.564l4.233 11.285v1.992L85.08 89.366H58.237L39.679 78.48v7.97l15.47 9.076a5.204 5.204 0 002.632.715h28.274a5.209 5.209 0 004.519-2.629l15.308-26.904a5.22 5.22 0 00.68-2.571v-2.74c0-.623-.112-1.241-.332-1.825z" fill="url(#paint1_linear)"/><defs><linearGradient id="paint0_linear" x1="106.385" y1="13.694" x2="28.97" y2="84.305" gradientUnits="userSpaceOnUse"><stop stop-color="#FF5C00"/><stop offset="1" stop-color="#CD1000"/></linearGradient><linearGradient id="paint1_linear" x1="106.385" y1="13.694" x2="28.97" y2="84.305" gradientUnits="userSpaceOnUse"><stop stop-color="#FF5C00"/><stop offset="1" stop-color="#CD1000"/></linearGradient></defs></svg>