<svg width="110" height="110" fill="none" xmlns="http://www.w3.org/2000/svg"><path d="M72.188 89.375H13.75A6.875 6.875 0 016.875 82.5v-55a6.875 6.875 0 016.875-6.875h58.438a6.875 6.875 0 016.874 6.875v13.956l18.632-13.303a3.437 3.437 0 015.431 2.785v48.124a3.443 3.443 0 01-3.686 3.413 3.437 3.437 0 01-1.745-.628L79.062 68.544V82.5a6.875 6.875 0 01-6.874 6.875zM13.75 27.5v55h58.438V61.875a3.438 3.438 0 015.43-2.784L96.25 72.394V37.606L77.619 50.91a3.437 3.437 0 01-5.431-2.784V27.5H13.75z" fill="#DD2B1C"/><path d="M72.188 89.375H13.75A6.875 6.875 0 016.875 82.5v-55a6.875 6.875 0 016.875-6.875h58.438a6.875 6.875 0 016.874 6.875v13.956l18.632-13.303a3.437 3.437 0 015.431 2.785v48.124a3.443 3.443 0 01-3.686 3.413 3.437 3.437 0 01-1.745-.628L79.062 68.544V82.5a6.875 6.875 0 01-6.874 6.875zM13.75 27.5v55h58.438V61.875a3.438 3.438 0 015.43-2.784L96.25 72.394V37.606L77.619 50.91a3.437 3.437 0 01-5.431-2.784V27.5H13.75z" fill="url(#paint0_linear)"/><defs><linearGradient id="paint0_linear" x1="103.054" y1="64.8" x2="80.914" y2="92.469" gradientUnits="userSpaceOnUse"><stop stop-color="#FF5C00"/><stop offset="1" stop-color="#CD1000"/></linearGradient></defs></svg>