<svg width="50" height="38" xmlns="http://www.w3.org/2000/svg"><path d="M37.5 21.973c1.795 0 3.705.179 5.682.536v3.353c-1.41-.357-3.318-.536-5.682-.536-4.318 0-7.704.738-10.227 2.213V23.76c2.659-1.184 6.068-1.788 10.227-1.788zm-10.227-4.18c2.931-1.185 6.34-1.766 10.227-1.766 1.795 0 3.705.156 5.682.514v3.353c-1.41-.357-3.318-.536-5.682-.536-4.318 0-7.704.76-10.227 2.213v-3.778zM37.5 13.412c-4.318 0-7.704.715-10.227 2.235v-3.71c2.795-1.252 6.204-1.878 10.227-1.878 1.795 0 3.705.179 5.682.514v3.465c-1.682-.425-3.614-.626-5.682-.626zm7.955 17.882V5.588c-2.364-.737-5.023-1.117-7.955-1.117-4.66 0-8.818 1.117-12.5 3.353v25.705c3.682-2.235 7.84-3.353 12.5-3.353 2.705 0 5.364.358 7.955 1.118zM37.5 0c5.34 0 9.523 1.118 12.5 3.353v32.546c0 .268-.114.536-.364.782-.25.201-.522.38-.772.38a1.27 1.27 0 01-.569-.112c-2.909-1.542-6.522-2.302-10.795-2.302-4.66 0-8.818 1.118-12.5 3.353-3.046-2.235-7.204-3.353-12.5-3.353-3.773 0-7.386.805-10.795 2.392-.069.022-.16.022-.273.067-.091.022-.182.045-.296.045-.25 0-.522-.09-.772-.269C.114 36.637 0 36.391 0 36.1V3.353C3.045 1.118 7.227 0 12.5 0c5.296 0 9.454 1.118 12.5 3.353C28.046 1.118 32.205 0 37.5 0z"/></svg>