<svg width="50" height="50" xmlns="http://www.w3.org/2000/svg"><path d="M40.486 32.2v-8.307a2.37 2.37 0 00-.697-1.678 2.381 2.381 0 00-1.682-.695h-2.379c5.328-3.821 6.565-11.226 2.736-16.613-3.83-5.27-11.251-6.503-16.603-2.682a11.956 11.956 0 00-3.735 4.414C12.536 3.198 5.21 4.907 1.761 10.531-1.664 16.11.05 23.42 5.662 26.86c.5.285 1 .593 1.523.783v19.984c0 .63.25 1.233.696 1.678A2.381 2.381 0 009.563 50h28.544c.63 0 1.236-.25 1.682-.695a2.37 2.37 0 00.697-1.678V39.32L50 48.813V22.707L40.486 32.2zM28.592 7.28c1.262 0 2.472.5 3.364 1.39a4.741 4.741 0 010 6.713 4.762 4.762 0 01-6.727 0 4.741 4.741 0 010-6.713 4.762 4.762 0 013.363-1.39zm-16.65 4.747c1.262 0 2.472.5 3.364 1.39a4.741 4.741 0 010 6.713 4.763 4.763 0 01-6.728 0 4.742 4.742 0 010-6.713 4.763 4.763 0 013.364-1.39z"/></svg>